<?xml version="1.0" encoding="UTF-8"?>
<svg id="Layer_2" data-name="Layer 2" xmlns="http://www.w3.org/2000/svg" viewBox="0 0 250.23 249.67">
  <defs>
    <style>
      .cls-1 {
        fill: #fff;
      }

      .cls-2 {
        fill: none;
        opacity: .08;
        stroke: #000;
        stroke-miterlimit: 10;
        stroke-width: .5px;
      }

      .cls-3 {
        fill: #fc9f3a;
        opacity: .66;
      }

      .cls-4 {
        fill: #003b3a;
      }
    </style>
  </defs>
  <g>
    <circle class="cls-3" cx="146.35" cy="62.86" r="49.93"/>
    <g id="Lag_2" data-name="Lag 2">
      <rect class="cls-1" x="94.01" y="98.55" width="66.91" height="66.91"/>
    </g>
    <path class="cls-4" d="m167.02,31.64h-85.7c-6.31,0-11.44,5.69-11.44,12.68v175.36c0,6.99,5.13,12.68,11.44,12.68h85.7c6.31,0,11.44-5.69,11.44-12.68V44.32c0-6.99-5.13-12.68-11.44-12.68Zm5.96,187.47c0,3.08-2.28,5.58-5.07,5.58h-86.38c-2.8,0-5.07-2.5-5.07-5.58V43.8c0-3.08,2.28-5.58,5.07-5.58h86.38c2.8,0,5.07,2.5,5.07,5.58,0,0,0,175.31,0,175.31Z"/>
    <g>
      <path class="cls-4" d="m114.62,157.58c2.74-3.08,5.66-5.97,8.13-9.29,2.14-2.88,3.93-6,5.43-9.26,3.01-6.5,4.52-13.43,5.63-20.47.04-.25.44-.26.45,0,.68,15.3-8.56,29.29-19.55,39.1-.05.05-.13-.04-.09-.09h0Z"/>
      <g>
        <path class="cls-4" d="m133.93,118.73c1.35-1.33,1.69-3.01,1.64-4.84-.03-1.18-.29-2.27-.97-3.25-.41-.59-1.22-1.85-1.8-1.33-1.03.94-1.06,3.8-.85,5,.28,1.64,1.04,3.15,2.13,4.39.09.1-.06.21-.15.15-3.37-2.26-2.82-7.34-1.16-10.41.06-.11.22-.19.33-.09,1.74,1.71,2.89,3.21,2.94,5.73.03,1.82-.32,3.74-2,4.73-.06.04-.16-.04-.1-.1h0Z"/>
        <path class="cls-4" d="m133.36,110.7c.72,4,1.2,8.08.64,12.15-.01.1-.18.1-.18,0-.19-4.06-.13-8.08-.5-12.14,0-.02.03-.03.04,0h0Z"/>
        <path class="cls-4" d="m134.41,112.04c.58,2.02.68,4.34-.02,6.35-.02.06-.11.03-.1-.03.32-2.16.47-4.14.11-6.31,0,0,.01-.01.01,0h0Z"/>
        <path class="cls-4" d="m132.65,113.4c.24,1.7.56,3.33,1.17,4.94.04.1-.1.17-.17.09-.56-.66-.73-1.48-.85-2.32-.13-.9-.27-1.81-.16-2.72,0,0,.01,0,.01,0h0Z"/>
      </g>
      <g>
        <path class="cls-4" d="m130.33,126.59c.84-1.72.61-3.4-.06-5.12-.37-.95-.85-1.82-1.65-2.47-.43-.35-1.47-1.2-2.06-1.22-1.24-.04-.1,4.25.22,4.93.76,1.62,2.09,2.94,3.64,3.81.1.05.07.24-.06.21-3.94-1.03-5.1-6.01-4.55-9.46.02-.13.17-.23.3-.17,1.99.94,3.58,1.87,4.47,3.98.76,1.81,1.21,3.96-.15,5.59-.05.06-.15,0-.12-.07h0Z"/>
        <path class="cls-4" d="m127.14,119.2c2,3.55,3.8,7.23,4.62,11.26.02.1-.14.14-.18.04-1.52-3.77-2.78-7.58-4.47-11.29,0-.02.02-.04.03-.02h0Z"/>
        <path class="cls-4" d="m128.58,120.12c1.22,1.73,2.06,3.85,2.07,5.99,0,.07-.09.08-.1.01-.4-2.14-.94-4.07-1.98-5.99,0,0,0-.01.01,0h0Z"/>
        <path class="cls-4" d="m127.36,121.98c.78,1.54,1.64,2.96,2.73,4.28.06.07-.03.19-.11.15-1.37-.8-2.28-2.95-2.63-4.43,0,0,.01-.01.01,0h0Z"/>
      </g>
      <g>
        <path class="cls-4" d="m123.72,142.39c1.26-1.44,1.49-3.12,1.29-4.95-.12-1.08-.4-2.09-1.06-2.98-.26-.35-1.36-1.74-1.81-1.64-.47.11-.72,1.86-.79,2.22-.16.88-.18,1.79-.02,2.68.31,1.76,1.25,3.38,2.51,4.63.08.08,0,.25-.11.18-3.54-2.03-3.35-7.13-1.9-10.32.06-.12.22-.18.33-.09,1.76,1.5,3.04,2.88,3.29,5.26.21,1.88.03,3.94-1.64,5.1-.06.04-.15-.04-.1-.1h0Z"/>
        <path class="cls-4" d="m122.59,134.42c1,3.95,1.77,7.98,1.5,12.08,0,.11-.17.1-.18,0-.48-4.04-.7-8.04-1.35-12.07,0-.02.03-.03.04,0h0Z"/>
        <path class="cls-4" d="m123.73,135.69c.72,1.97.99,4.28.43,6.32-.02.06-.11.05-.1-.02.16-2.19.17-4.16-.34-6.3,0,0,.01-.01.01,0h0Z"/>
        <path class="cls-4" d="m122.07,137.17c.35,1.69.8,3.28,1.51,4.85.04.08-.08.18-.15.11-1.11-1.12-1.45-3.45-1.38-4.96,0,0,.01,0,.01,0h0Z"/>
      </g>
      <g>
        <path class="cls-4" d="m132.62,135.51c-.34-2.01,1.01-3.57,2.49-4.74,1.89-1.49,3.76-1.54,6.06-1.33.14.01.21.18.17.3-1.26,3.26-4.76,6.97-8.67,5.88-.1-.03-.13-.22,0-.21,1.53.02,3.02-.31,4.38-1.03.9-.48,1.65-1.11,2.29-1.9.31-.39,1.59-1.91,1.41-2.42-.16-.48-1.64-.33-2.03-.3-1.13.08-2.03.43-2.95,1.07-1.63,1.13-2.87,2.66-3.02,4.69,0,.08-.12.07-.14,0h0Z"/>
        <path class="cls-4" d="m139.26,130.77c-3.33,2.35-6.34,5-9.56,7.49-.08.06-.2-.05-.13-.13,2.74-3.06,6.15-5.34,9.66-7.39.02-.01.04.02.02.03h0Z"/>
        <path class="cls-4" d="m137.54,130.82c-1.89,1.14-3.29,2.53-4.74,4.17-.04.04-.12,0-.09-.05,1.07-1.84,2.9-3.26,4.82-4.14,0,0,.01,0,0,.01h0Z"/>
        <path class="cls-4" d="m137.65,133.04c-1.02,1.1-2.92,2.5-4.49,2.49-.1,0-.16-.14-.05-.18,1.62-.59,3.07-1.39,4.52-2.32,0,0,.02,0,.01.01h0Z"/>
      </g>
      <g>
        <path class="cls-4" d="m120.99,154.07c.49-1.9,2.22-2.78,4-3.26,2.42-.65,4.15,0,6.26,1.19.11.06.19.22.09.33-2.49,2.45-7.21,4.45-10.35,1.84-.09-.08,0-.24.11-.18,1.44.67,3.01.98,4.6.83.86-.08,5.59-1.69,4.79-2.75-.26-.35-1.2-.63-1.61-.78-.95-.35-1.88-.43-2.87-.26-2,.32-3.9,1.25-4.89,3.08-.03.06-.15.04-.13-.04h0Z"/>
        <path class="cls-4" d="m128.99,152.45c-4,.78-7.84,1.97-11.79,2.93-.1.03-.13-.14-.04-.18,3.74-1.67,7.79-2.35,11.83-2.79.02,0,.03.03,0,.04h0Z"/>
        <path class="cls-4" d="m127.4,151.8c-2.18.27-4.06.96-6.03,1.88-.05.02-.1-.06-.05-.09,1.75-1.23,3.96-1.78,6.08-1.8,0,0,.01.01,0,.01h0Z"/>
        <path class="cls-4" d="m126.6,153.87c-.88.37-1.84.49-2.78.62-.8.11-1.6.16-2.34-.19-.1-.05-.05-.19.05-.18,1.72.13,3.37-.02,5.06-.27,0,0,.01.01,0,.01h0Z"/>
      </g>
      <g>
        <path class="cls-4" d="m137.51,123.23c-.95.59-1.71,1.3-2.5,2.09-1.51,1.51-2.2,2.86-2.57,4.95-.02.09-.17.13-.2.02-.75-2.9,3.04-5.87,5.23-7.11.04-.02.08.03.04.05h0Z"/>
        <path class="cls-4" d="m137.6,121.13c-.18-1.39,2.18-1.34,2.94-.85,1.16.74,1.34,2.48.44,3.5-.95,1.06-2.96,1.03-3.73-.25-.84-1.41.81-3.2,2.29-2.68.74.26,1.23,1.07,1.01,1.84-.18.65-1.01,1.17-1.61.68-.09-.08-.08-.21.02-.27.44-.23,1.04-.82.44-1.28-.54-.41-1.25.11-1.41.65-.35,1.23,1.29,1.58,2.12,1.17.89-.45,1.1-1.64.6-2.45-.55-.89-2.57-1.28-3.07-.06,0,.02-.04.02-.05,0h0Z"/>
      </g>
      <g>
        <path class="cls-4" d="m116.1,145.82c.89,1.51,1.51,3.3,1.78,5.03.2,1.31.37,3.47-.61,4.51-.08.09-.21,0-.18-.1.93-3.17.52-6.48-1.06-9.4-.02-.03.04-.07.06-.03h0Z"/>
        <path class="cls-4" d="m117,143.98c.84-1.12-1.23-2.25-2.13-2.2-1.37.07-2.4,1.49-2.12,2.82.29,1.39,2.06,2.37,3.36,1.64,1.43-.8.89-3.18-.66-3.46-.77-.14-1.6.32-1.8,1.1-.17.66.29,1.52,1.05,1.39.12-.02.18-.14.11-.25-.26-.42-.49-1.23.26-1.33.68-.09,1.03.72.9,1.27-.31,1.24-1.91.73-2.42-.04-.55-.83-.14-1.97.7-2.43.92-.5,2.87.17,2.69,1.47,0,.02.03.04.04.02h0Z"/>
      </g>
      <g>
        <path class="cls-4" d="m130.49,143.72c-2.41.42-5.12,1.72-6.6,3.72-.05.07-.17.02-.15-.07.24-1.1,1.65-1.79,2.55-2.3,1.27-.71,2.75-1.22,4.19-1.41.04,0,.04.05,0,.06h0Z"/>
        <path class="cls-4" d="m131.23,142.13c.3-1.13,2.11-.35,2.54.26.66.94.26,2.34-.75,2.84-1.07.53-2.61-.13-2.81-1.36-.21-1.35,1.63-2.22,2.61-1.35.49.43.62,1.21.21,1.74-.35.45-1.15.59-1.46.03-.05-.09,0-.19.1-.2.41-.04,1.06-.31.74-.85-.29-.49-1-.31-1.29.06-.66.84.5,1.63,1.27,1.56.83-.07,1.36-.92,1.23-1.71-.15-.86-1.59-1.79-2.35-1-.01.01-.04,0-.04-.02h0Z"/>
      </g>
      <g>
        <path class="cls-4" d="m127.71,132.88c.92,1.53,2.14,4.51.75,6.07-.05.06-.15,0-.12-.07.75-2.01.35-4.11-.67-5.97-.01-.02.03-.05.04-.02h0Z"/>
        <path class="cls-4" d="m128.33,131.6c.58-.78-.86-1.55-1.49-1.52-.95.06-1.66,1.04-1.46,1.96.21.97,1.44,1.63,2.34,1.12.99-.56.6-2.21-.47-2.4-.53-.09-1.11.23-1.24.77-.11.46.21,1.05.74.96.08-.01.12-.1.08-.17-.18-.29-.34-.85.17-.92.47-.06.72.49.63.88-.21.86-1.32.52-1.68-.02-.38-.57-.11-1.37.48-1.69.64-.35,1.99.1,1.87,1.01,0,.02.02.03.03.01h0Z"/>
      </g>
    </g>
    <path class="cls-4" d="m125.73,52.29c-3.22,0-6.44.03-9.67,0-2.37-.03-3.87-1.37-3.9-3.38-.03-2.02,1.47-3.45,3.81-3.47,6.59-.04,13.18-.03,19.76,0,2.38.01,3.87,1.36,3.9,3.38.03,2.08-1.52,3.45-4.02,3.48-3.29.03-6.59,0-9.88,0Z"/>
    <path class="cls-1" d="m188.26,42.75c-2.01-.03-3.49,1.56-3.49,3.75,0,2.02,1.32,3.41,3.26,3.46,1.87.04,3.59-1.77,3.59-3.77,0-1.86-1.52-3.41-3.36-3.44Z"/>
    <path class="cls-1" d="m184.77,60.25c0,2.02,1.31,3.42,3.25,3.46,1.87.04,3.6-1.76,3.6-3.76,0-1.86-1.51-3.41-3.36-3.44-2.01-.04-3.49,1.55-3.49,3.75Z"/>
    <path class="cls-1" d="m184.77,73.9c-.04,2.05,1.2,3.44,3.16,3.55,1.87.1,3.64-1.65,3.7-3.66.05-1.86-1.42-3.45-3.26-3.54-2-.1-3.55,1.48-3.59,3.65Z"/>
    <path class="cls-4" d="m188.26,42.75c1.85.03,3.36,1.58,3.36,3.44,0,2-1.72,3.81-3.59,3.77-1.94-.04-3.26-1.43-3.26-3.46,0-2.19,1.48-3.79,3.49-3.75Z"/>
    <path class="cls-4" d="m184.77,60.25c0-2.19,1.48-3.78,3.49-3.75,1.85.03,3.36,1.59,3.36,3.44,0,2-1.73,3.81-3.6,3.76-1.94-.04-3.26-1.44-3.25-3.46Z"/>
    <path class="cls-4" d="m184.77,73.9c.04-2.17,1.59-3.75,3.59-3.65,1.85.09,3.32,1.69,3.26,3.54-.06,2.01-1.83,3.76-3.7,3.66-1.96-.11-3.2-1.5-3.16-3.55Z"/>
    <path class="cls-4" d="m58.24,177.16c-2.47-.04-4.28,1.91-4.28,4.6,0,2.48,1.61,4.19,4,4.24,2.29.05,4.41-2.17,4.41-4.62,0-2.28-1.86-4.18-4.13-4.22Z"/>
    <path class="cls-4" d="m53.96,198.62c0,2.48,1.61,4.19,3.99,4.24,2.29.05,4.41-2.16,4.41-4.62,0-2.28-1.85-4.18-4.12-4.22-2.47-.05-4.28,1.9-4.28,4.59Z"/>
    <path class="cls-4" d="m53.96,215.37c-.05,2.52,1.47,4.22,3.87,4.35,2.29.12,4.46-2.03,4.53-4.49.07-2.27-1.74-4.23-4-4.34-2.46-.12-4.35,1.81-4.4,4.47Z"/>
    <path class="cls-4" d="m58.24,177.16c2.27.04,4.12,1.94,4.13,4.22,0,2.45-2.11,4.67-4.41,4.62-2.38-.05-4-1.76-4-4.24,0-2.69,1.81-4.64,4.28-4.6Z"/>
    <path class="cls-4" d="m53.96,198.62c0-2.69,1.82-4.64,4.28-4.59,2.27.04,4.12,1.94,4.12,4.22,0,2.45-2.12,4.67-4.41,4.62-2.38-.05-3.99-1.76-3.99-4.24Z"/>
    <path class="cls-4" d="m53.96,215.37c.05-2.66,1.95-4.59,4.4-4.47,2.26.11,4.07,2.07,4,4.34-.07,2.46-2.24,4.61-4.53,4.49-2.4-.13-3.92-1.84-3.87-4.35Z"/>
    <path class="cls-4" d="m149.45,49.88c.04-2.17,1.59-3.75,3.59-3.65,1.85.09,3.32,1.69,3.26,3.54-.06,2.01-1.83,3.76-3.7,3.66-1.96-.11-3.2-1.5-3.16-3.55Z"/>
    <g id="Lag_3" data-name="Lag 3">
      <path class="cls-4" d="m156.53,104.03v60.33h-60.33v-60.33h60.33m3.29-3.29h-66.91v66.91h66.91v-66.91h0Z"/>
    </g>
  </g>
  <circle class="cls-2" cx="125.11" cy="126.01" r="122.18"/>
</svg>