<?xml version="1.0" encoding="UTF-8"?>
<svg id="Layer_2" data-name="Layer 2" xmlns="http://www.w3.org/2000/svg" viewBox="0 0 250.23 250.11">
  <defs>
    <style>
      .cls-1 {
        fill: #fff;
      }

      .cls-2 {
        fill: none;
        opacity: .08;
        stroke: #000;
        stroke-miterlimit: 10;
        stroke-width: .5px;
      }

      .cls-3 {
        fill: #fc9f3a;
        opacity: .66;
      }

      .cls-4 {
        fill: #003b3a;
      }
    </style>
  </defs>
  <g>
    <path class="cls-4" d="m58.52,180.93c-2.04-.03-3.55,1.54-3.54,3.72,0,2.01,1.34,3.39,3.31,3.43,1.9.04,3.65-1.76,3.65-3.74,0-1.84-1.54-3.38-3.42-3.41Z"/>
    <path class="cls-4" d="m54.97,198.29c0,2.01,1.33,3.39,3.31,3.43,1.9.04,3.65-1.75,3.65-3.73,0-1.84-1.54-3.38-3.41-3.42-2.04-.04-3.55,1.54-3.55,3.72Z"/>
    <path class="cls-4" d="m54.97,211.84c-.04,2.04,1.22,3.42,3.21,3.52,1.9.1,3.69-1.64,3.75-3.63.06-1.84-1.44-3.42-3.31-3.51-2.03-.1-3.61,1.46-3.65,3.62Z"/>
    <path class="cls-4" d="m58.52,180.93c1.88.03,3.42,1.57,3.42,3.41,0,1.98-1.75,3.78-3.65,3.74-1.98-.04-3.31-1.42-3.31-3.43,0-2.18,1.5-3.76,3.54-3.72Z"/>
    <path class="cls-4" d="m54.97,198.29c0-2.18,1.51-3.75,3.55-3.72,1.88.03,3.41,1.57,3.41,3.42,0,1.98-1.76,3.78-3.65,3.73-1.98-.04-3.31-1.43-3.31-3.43Z"/>
    <path class="cls-4" d="m54.97,211.84c.04-2.16,1.61-3.72,3.65-3.62,1.87.09,3.37,1.67,3.31,3.51-.06,1.99-1.86,3.73-3.75,3.63-1.99-.11-3.25-1.49-3.21-3.52Z"/>
    <g>
      <ellipse class="cls-3" cx="144.54" cy="62.47" rx="50.71" ry="49.53"/>
      <path class="cls-4" d="m100.14,132.6c3.43,3.35,6.66,6.5,9.89,9.65.57.55,1.16,1.08,1.67,1.68,1.35,1.59,1.3,3.48-.08,4.79-1.38,1.31-3.31,1.32-4.9-.06-1.08-.94-2.07-1.99-3.1-3-3.44-3.36-6.9-6.71-10.32-10.1-2.12-2.1-2.11-3.75.03-5.86,4.3-4.23,8.62-8.45,12.95-12.65,1.84-1.78,3.86-1.91,5.37-.44,1.51,1.47,1.39,3.46-.43,5.25-3.58,3.52-7.22,7-11.08,10.74Z"/>
      <path class="cls-4" d="m151.64,132.88c-3.6-3.48-7.01-6.77-10.42-10.06-.46-.45-.96-.88-1.34-1.4-1.13-1.54-1.07-3.11.3-4.44,1.36-1.33,3.14-1.57,4.52-.27,4.97,4.68,9.85,9.45,14.63,14.31,1.33,1.36.97,3.12-.35,4.43-4.59,4.55-9.21,9.08-13.89,13.55-1.52,1.45-3.52,1.37-4.9.07-1.43-1.35-1.48-3.37.08-4.94,3.19-3.21,6.46-6.34,9.7-9.51.5-.49.98-1.01,1.68-1.74Z"/>
      <path class="cls-4" d="m133.11,114.37c-.48,2.27-1.07,5.02-1.65,7.76-1.74,8.25-3.47,16.5-5.23,24.74-.68,3.18-2.32,4.67-4.37,4.08-2.18-.63-3.04-2.84-2.34-6.18,2.2-10.5,4.4-21,6.64-31.49.54-2.53,2.09-3.83,3.92-3.52,1.72.29,3,2.03,3.02,4.61Z"/>
      <path class="cls-4" d="m169.7,32.83h-87.3c-6.43,0-11.66,5.66-11.66,12.61v174.33c0,6.95,5.23,12.61,11.66,12.61h87.3c6.43,0,11.66-5.66,11.66-12.61V45.43c0-6.95-5.23-12.61-11.66-12.61Zm5.13,186.94c0,3.06-2.3,5.55-5.13,5.55h-87.3c-2.83,0-5.13-2.49-5.13-5.55V45.44c0-3.06,2.3-5.55,5.13-5.55h87.3c2.83,0,5.13,2.49,5.13,5.55,0,0,0,174.33,0,174.33Z"/>
      <path class="cls-4" d="m127.12,54c-3.27,0-6.55.03-9.82,0-2.41-.03-3.93-1.36-3.96-3.36-.03-2.01,1.49-3.43,3.87-3.44,6.69-.04,13.38-.03,20.07,0,2.42.01,3.93,1.35,3.96,3.35.03,2.07-1.54,3.43-4.09,3.45-3.35.03-6.69,0-10.04,0Z"/>
      <path class="cls-1" d="m190.63,44.54c-2.04-.03-3.55,1.54-3.54,3.72,0,2.01,1.34,3.39,3.31,3.43,1.9.04,3.65-1.76,3.65-3.74,0-1.84-1.54-3.38-3.42-3.41Z"/>
      <path class="cls-1" d="m187.08,61.9c0,2.01,1.33,3.39,3.31,3.43,1.9.04,3.65-1.75,3.65-3.73,0-1.84-1.54-3.38-3.41-3.42-2.04-.04-3.55,1.54-3.55,3.72Z"/>
      <path class="cls-1" d="m187.08,75.44c-.04,2.04,1.22,3.42,3.21,3.52,1.9.1,3.69-1.64,3.75-3.63.06-1.84-1.44-3.42-3.31-3.51-2.03-.1-3.61,1.46-3.65,3.62Z"/>
      <path class="cls-4" d="m190.63,44.54c1.88.03,3.42,1.57,3.42,3.41,0,1.98-1.75,3.78-3.65,3.74-1.98-.04-3.31-1.42-3.31-3.43,0-2.18,1.5-3.76,3.54-3.72Z"/>
      <path class="cls-4" d="m187.08,61.9c0-2.18,1.51-3.75,3.55-3.72,1.88.03,3.41,1.57,3.41,3.42,0,1.98-1.76,3.78-3.65,3.73-1.98-.04-3.31-1.43-3.31-3.43Z"/>
      <path class="cls-4" d="m187.08,75.44c.04-2.16,1.61-3.72,3.65-3.62,1.87.09,3.37,1.67,3.31,3.51-.06,1.99-1.86,3.73-3.75,3.63-1.99-.11-3.25-1.49-3.21-3.52Z"/>
      <path class="cls-4" d="m150.71,51.12c.04-2.16,1.61-3.72,3.65-3.62,1.87.09,3.37,1.67,3.31,3.51-.06,1.99-1.86,3.73-3.75,3.63-1.99-.11-3.25-1.49-3.21-3.52Z"/>
    </g>
  </g>
  <circle class="cls-2" cx="125.11" cy="126.01" r="122.18"/>
</svg>