<?xml version="1.0" encoding="UTF-8"?>
<svg id="Layer_2" data-name="Layer 2" xmlns="http://www.w3.org/2000/svg" viewBox="0 0 250.23 253.69">
  <defs>
    <style>
      .cls-1 {
        fill: #fff;
      }

      .cls-2 {
        fill: none;
        opacity: .08;
        stroke: #000;
        stroke-miterlimit: 10;
        stroke-width: .5px;
      }

      .cls-3 {
        fill: #fc9f3a;
        opacity: .66;
      }

      .cls-4 {
        fill: #003b3a;
      }
    </style>
  </defs>
  <g>
    <circle class="cls-3" cx="145.93" cy="61.37" r="48.44"/>
    <path class="cls-4" d="m163.94,31.66h-85.77c-6.32,0-11.45,5.69-11.45,12.68v175.34c0,6.99,5.14,12.68,11.45,12.68h85.77c6.32,0,11.45-5.69,11.45-12.68V44.34c0-6.99-5.14-12.68-11.45-12.68Zm5.04,188.03c0,3.08-2.26,5.58-5.04,5.58h-85.77c-2.78,0-5.04-2.5-5.04-5.58V44.35c0-3.08,2.26-5.58,5.04-5.58h85.77c2.78,0,5.04,2.5,5.04,5.58,0,0,0,175.34,0,175.34Z"/>
    <path class="cls-4" d="m122.1,52.96c-3.22,0-6.43.03-9.65,0-2.37-.03-3.86-1.37-3.89-3.38-.03-2.02,1.46-3.45,3.8-3.46,6.57-.04,13.15-.03,19.72,0,2.37.01,3.86,1.36,3.89,3.37.03,2.08-1.52,3.45-4.01,3.47-3.29.03-6.57,0-9.86,0Z"/>
    <path class="cls-1" d="m184.5,43.44c-2.01-.03-3.48,1.55-3.48,3.74,0,2.02,1.31,3.41,3.25,3.45,1.87.04,3.59-1.77,3.59-3.76,0-1.85-1.51-3.4-3.36-3.43Z"/>
    <path class="cls-1" d="m181.02,60.9c0,2.02,1.31,3.41,3.25,3.45,1.87.04,3.59-1.76,3.59-3.76,0-1.85-1.51-3.4-3.35-3.44-2.01-.04-3.49,1.55-3.49,3.74Z"/>
    <path class="cls-1" d="m181.02,74.53c-.04,2.05,1.2,3.44,3.15,3.54,1.86.1,3.63-1.65,3.69-3.65.05-1.85-1.41-3.44-3.25-3.53-2-.1-3.54,1.47-3.58,3.64Z"/>
    <path class="cls-4" d="m184.5,43.44c1.84.03,3.36,1.58,3.36,3.43,0,1.99-1.72,3.8-3.59,3.76-1.94-.04-3.25-1.43-3.25-3.45,0-2.19,1.47-3.78,3.48-3.74Z"/>
    <path class="cls-4" d="m181.02,60.9c0-2.19,1.48-3.78,3.49-3.74,1.84.03,3.35,1.58,3.35,3.44,0,1.99-1.73,3.8-3.59,3.76-1.94-.04-3.25-1.43-3.25-3.45Z"/>
    <path class="cls-4" d="m181.02,74.53c.04-2.17,1.59-3.74,3.58-3.64,1.84.09,3.31,1.68,3.25,3.53-.06,2-1.83,3.75-3.69,3.65-1.96-.11-3.19-1.49-3.15-3.54Z"/>
    <path class="cls-4" d="m59.34,181.2c-2.01-.03-3.48,1.55-3.48,3.74,0,2.02,1.31,3.41,3.25,3.45,1.87.04,3.59-1.77,3.59-3.76,0-1.85-1.51-3.4-3.36-3.43Z"/>
    <path class="cls-4" d="m55.86,198.66c0,2.02,1.31,3.41,3.25,3.45,1.87.04,3.59-1.76,3.59-3.76,0-1.85-1.51-3.4-3.35-3.44-2.01-.04-3.49,1.55-3.49,3.74Z"/>
    <path class="cls-4" d="m55.86,212.29c-.04,2.05,1.2,3.44,3.15,3.54,1.86.1,3.63-1.65,3.69-3.65.05-1.85-1.41-3.44-3.25-3.53-2-.1-3.54,1.47-3.58,3.64Z"/>
    <path class="cls-4" d="m59.34,181.2c1.84.03,3.36,1.58,3.36,3.43,0,1.99-1.72,3.8-3.59,3.76-1.94-.04-3.25-1.43-3.25-3.45,0-2.19,1.47-3.78,3.48-3.74Z"/>
    <path class="cls-4" d="m55.86,198.66c0-2.19,1.48-3.78,3.49-3.74,1.84.03,3.35,1.58,3.35,3.44,0,1.99-1.73,3.8-3.59,3.76-1.94-.04-3.25-1.43-3.25-3.45Z"/>
    <path class="cls-4" d="m55.86,212.29c.04-2.17,1.59-3.74,3.58-3.64,1.84.09,3.31,1.68,3.25,3.53-.06,2-1.83,3.75-3.69,3.65-1.96-.11-3.19-1.49-3.15-3.54Z"/>
    <path class="cls-4" d="m145.77,50.55c.04-2.17,1.59-3.74,3.58-3.64,1.84.09,3.31,1.68,3.25,3.53-.06,2-1.83,3.75-3.69,3.65-1.96-.11-3.19-1.49-3.15-3.54Z"/>
    <g id="Lag_2" data-name="Lag 2">
      <rect class="cls-1" x="88.74" y="97.5" width="67.07" height="67.07"/>
    </g>
    <g id="Lag_3" data-name="Lag 3">
      <path class="cls-4" d="m152.41,104.33v60.27h-60.27v-60.27h60.27m3.4-3.4h-67.07v67.07h67.07v-67.07h0Z"/>
      <g>
        <path class="cls-4" d="m128.05,149.91l-3.74-9.68h-12.22l-3.74,9.68h-3.57l11.97-30.39h2.97l11.88,30.39h-3.57Zm-4.92-12.82l-3.57-9.42c-.42-1.19-.93-2.63-1.44-4.41-.34,1.36-.76,2.8-1.27,4.41l-3.48,9.42h9.76Z"/>
        <path class="cls-4" d="m135.01,121.05c0-.76.17-1.36.59-1.7s.85-.51,1.44-.51,1.02.17,1.44.59c.42.34.59.93.59,1.7s-.17,1.36-.59,1.7-.85.59-1.44.59-1.1-.17-1.44-.59c-.34-.42-.59-1.02-.59-1.78Zm3.74,28.86h-3.48v-22.67h3.48v22.67Z"/>
      </g>
    </g>
  </g>
  <circle class="cls-2" cx="125.11" cy="126.01" r="122.18"/>
</svg>