<?xml version="1.0" encoding="UTF-8"?>
<svg id="Layer_2" data-name="Layer 2" xmlns="http://www.w3.org/2000/svg" viewBox="0 0 250.23 249.08">
  <defs>
    <style>
      .cls-1 {
        fill: #fff;
      }

      .cls-2 {
        opacity: .08;
        stroke: #000;
        stroke-width: .5px;
      }

      .cls-2, .cls-3 {
        fill: none;
        stroke-miterlimit: 10;
      }

      .cls-4 {
        fill: #fc9f3a;
        opacity: .66;
      }

      .cls-5 {
        fill: #003b3a;
      }

      .cls-3 {
        stroke: #003b3a;
        stroke-linecap: round;
        stroke-width: 5.19px;
      }
    </style>
  </defs>
  <g>
    <circle class="cls-4" cx="146.36" cy="62.26" r="49.32"/>
    <path class="cls-5" d="m167.9,30.53h-86.26c-6.35,0-11.52,5.72-11.52,12.75v176.33c0,7.03,5.17,12.75,11.52,12.75h86.26c6.35,0,11.52-5.72,11.52-12.75V43.28c0-7.03-5.17-12.75-11.52-12.75Zm5.07,189.09c0,3.09-2.27,5.61-5.07,5.61h-86.26c-2.79,0-5.07-2.52-5.07-5.61V43.28c0-3.09,2.27-5.61,5.07-5.61h86.26c2.79,0,5.07,2.52,5.07,5.61,0,0,0,176.33,0,176.33Z"/>
    <path class="cls-5" d="m123.23,50.47c-3.23,0-6.47.03-9.7,0-2.38-.03-3.88-1.37-3.91-3.4-.03-2.03,1.47-3.47,3.82-3.48,6.61-.04,13.22-.03,19.83,0,2.39.01,3.88,1.37,3.91,3.39.03,2.09-1.53,3.47-4.04,3.49-3.31.03-6.61,0-9.92,0Z"/>
    <path class="cls-1" d="m188.57,42.37c-2.02-.03-3.5,1.56-3.5,3.76,0,2.03,1.32,3.43,3.27,3.47,1.88.04,3.61-1.78,3.61-3.78,0-1.86-1.52-3.42-3.38-3.45Z"/>
    <path class="cls-1" d="m185.07,59.93c0,2.03,1.31,3.43,3.27,3.47,1.88.04,3.61-1.77,3.61-3.78,0-1.86-1.52-3.42-3.37-3.46-2.02-.04-3.51,1.56-3.51,3.76Z"/>
    <path class="cls-5" d="m185.07,73.64c-.04,2.06,1.2,3.46,3.17,3.56,1.87.1,3.65-1.66,3.71-3.67.05-1.86-1.42-3.46-3.27-3.55-2.01-.1-3.56,1.48-3.6,3.66Z"/>
    <path class="cls-5" d="m188.57,42.37c1.85.03,3.38,1.59,3.38,3.45,0,2.01-1.73,3.82-3.61,3.78-1.95-.04-3.27-1.44-3.27-3.47,0-2.2,1.48-3.8,3.5-3.76Z"/>
    <path class="cls-5" d="m185.07,59.93c0-2.2,1.49-3.8,3.51-3.76,1.85.03,3.37,1.59,3.37,3.46,0,2.01-1.74,3.82-3.61,3.78-1.95-.04-3.27-1.44-3.27-3.47Z"/>
    <path class="cls-5" d="m185.07,73.64c.04-2.18,1.59-3.76,3.6-3.66,1.85.09,3.33,1.69,3.27,3.55-.06,2.01-1.84,3.77-3.71,3.67-1.97-.11-3.21-1.5-3.17-3.56Z"/>
    <path class="cls-5" d="m58.05,180.34c-2.02-.03-3.5,1.56-3.5,3.76,0,2.03,1.32,3.43,3.27,3.47,1.88.04,3.61-1.78,3.61-3.78,0-1.86-1.52-3.42-3.38-3.45Z"/>
    <path class="cls-5" d="m54.54,197.9c0,2.03,1.31,3.43,3.27,3.47,1.88.04,3.61-1.77,3.61-3.78,0-1.86-1.52-3.42-3.37-3.46-2.02-.04-3.51,1.56-3.51,3.76Z"/>
    <path class="cls-5" d="m54.54,211.6c-.04,2.06,1.2,3.46,3.17,3.56,1.87.1,3.65-1.66,3.71-3.67.05-1.86-1.42-3.46-3.27-3.55-2.01-.1-3.56,1.48-3.6,3.66Z"/>
    <path class="cls-5" d="m58.05,180.34c1.85.03,3.38,1.59,3.38,3.45,0,2.01-1.73,3.82-3.61,3.78-1.95-.04-3.27-1.44-3.27-3.47,0-2.2,1.48-3.8,3.5-3.76Z"/>
    <path class="cls-5" d="m54.54,197.9c0-2.2,1.49-3.8,3.51-3.76,1.85.03,3.37,1.59,3.37,3.46,0,2.01-1.74,3.82-3.61,3.78-1.95-.04-3.27-1.44-3.27-3.47Z"/>
    <path class="cls-5" d="m54.54,211.6c.04-2.18,1.59-3.76,3.6-3.66,1.85.09,3.33,1.69,3.27,3.55-.06,2.01-1.84,3.77-3.71,3.67-1.97-.11-3.21-1.5-3.17-3.56Z"/>
    <path class="cls-5" d="m108.45,98.8l.3.28h1.74l.28-.28c.03-.94.22-4.1.66-4.92.11-.17.31-.31.61-.43,1.13-.42,7.49-.29,9.72-.31.12,1.3.07,11.49.08,20.51,0,4.51-.12,7.45-.36,8.81-.09.55-.41.9-.94,1.05-.28.08-1.35.17-3.23.28l-.28.28v1.93l.25.26c3.44-.23,13.27-.23,17.01,0l.28-.28v-1.9l-.28-.28c-1.88-.11-2.95-.21-3.23-.28-.53-.15-.85-.5-.94-1.05-.24-1.36-.36-4.3-.36-8.81,0-9.05-.03-19.05.06-20.51,1.8,0,8.13-.03,8.89.09.96.13,1.55.58,1.77,1.34.11.42.21,1.84.3,4.26l.3.26h1.74l.28-.28c.1-3.81-.09-5.91.41-9.1l-.28-.28c-1.62.19-5.58.28-11.87.28-6.57-.03-20.77.12-23.06-.28l-.25.28c.47,3.38.29,5.09.39,9.1Z"/>
    <path class="cls-5" d="m113.72,199.63h24.56c1.36,0,2.46-1.1,2.46-2.46s-1.1-2.46-2.46-2.46h-24.56c-1.36,0-2.46,1.1-2.46,2.46s1.1,2.46,2.46,2.46Z"/>
    <path class="cls-5" d="m113.72,192.26h24.56c1.36,0,2.46-1.1,2.46-2.46s-1.1-2.46-2.46-2.46h-24.56c-1.36,0-2.46,1.1-2.46,2.46s1.1,2.46,2.46,2.46Z"/>
    <path class="cls-5" d="m107.58,184.89h36.84c1.36,0,2.46-1.1,2.46-2.46s-1.1-2.46-2.46-2.46h-36.84c-1.36,0-2.46,1.1-2.46,2.46s1.1,2.46,2.46,2.46Z"/>
    <path class="cls-5" d="m107.58,177.53h36.84c1.36,0,2.46-1.1,2.46-2.46s-1.1-2.46-2.46-2.46h-36.84c-1.36,0-2.46,1.1-2.46,2.46s1.1,2.46,2.46,2.46Z"/>
    <path class="cls-5" d="m107.58,170.16h36.84c1.36,0,2.46-1.1,2.46-2.46s-1.1-2.46-2.46-2.46h-36.84c-1.36,0-2.46,1.1-2.46,2.46s1.1,2.46,2.46,2.46Z"/>
    <path class="cls-3" d="m90.7,70.65h56.26c7.91,0,14.33,6.42,14.33,14.33v59.51h-70.59v-73.84h0Z"/>
    <path class="cls-5" d="m145.82,47.08c.04-2.18,1.59-3.76,3.6-3.66,1.85.09,3.33,1.69,3.27,3.55-.06,2.01-1.84,3.77-3.71,3.67-1.97-.11-3.21-1.5-3.17-3.56Z"/>
  </g>
  <circle class="cls-2" cx="125.11" cy="126.01" r="122.18"/>
</svg>