<?xml version="1.0" encoding="UTF-8"?>
<svg id="Layer_2" data-name="Layer 2" xmlns="http://www.w3.org/2000/svg" viewBox="0 0 250.23 250.11">
  <defs>
    <style>
      .cls-1 {
        fill: none;
        opacity: .08;
        stroke: #000;
        stroke-miterlimit: 10;
        stroke-width: .5px;
      }

      .cls-2 {
        fill: #fc9f3a;
        opacity: .66;
      }

      .cls-3 {
        fill: #003b3a;
      }
    </style>
  </defs>
  <g>
    <circle class="cls-2" cx="145.6" cy="62.6" r="49.66"/>
    <g id="Layer_1-2" data-name="Layer 1-2">
      <g>
        <path class="cls-3" d="m166.6,28.3h-87.21c-6.42,0-11.64,5.79-11.64,12.9v178.27c0,7.11,5.22,12.9,11.64,12.9h87.21c6.42,0,11.64-5.79,11.64-12.9V41.2c0-7.11-5.22-12.9-11.64-12.9Zm5.12,191.17c0,3.13-2.3,5.68-5.12,5.68h-87.21c-2.83,0-5.12-2.55-5.12-5.68V41.2c0-3.13,2.3-5.68,5.12-5.68h87.21c2.83,0,5.12,2.55,5.12,5.68v178.27h0Z"/>
        <path class="cls-3" d="m124.06,49.95c-3.27,0-6.54.03-9.8,0-2.4-.03-3.93-1.39-3.95-3.43-.03-2.05,1.49-3.51,3.86-3.52,6.69-.03,13.37-.03,20.05,0,2.42,0,3.93,1.38,3.95,3.43.03,2.11-1.55,3.51-4.08,3.53-3.34.03-6.69,0-10.03,0h0Z"/>
        <path class="cls-3" d="m187.5,40.28c-2.04-.03-3.54,1.58-3.54,3.81,0,2.05,1.34,3.46,3.31,3.51,1.89.04,3.65-1.79,3.65-3.83,0-1.88-1.54-3.46-3.42-3.48Z"/>
        <path class="cls-3" d="m183.96,58.03c0,2.05,1.32,3.46,3.31,3.51,1.89.04,3.65-1.79,3.65-3.82,0-1.88-1.54-3.46-3.41-3.49-2.04-.03-3.55,1.57-3.55,3.81Z"/>
        <path class="cls-3" d="m183.96,71.88c-.04,2.08,1.21,3.49,3.21,3.61,1.89.1,3.69-1.68,3.75-3.72.06-1.88-1.44-3.51-3.31-3.59-2.04-.1-3.61,1.5-3.64,3.71h-.01Z"/>
        <path class="cls-3" d="m187.5,40.28c1.87.03,3.42,1.6,3.42,3.48,0,2.03-1.75,3.86-3.65,3.83-1.97-.04-3.31-1.46-3.31-3.51,0-2.23,1.5-3.84,3.54-3.81Z"/>
        <path class="cls-3" d="m183.96,58.03c0-2.23,1.5-3.84,3.55-3.81,1.87.03,3.41,1.61,3.41,3.49,0,2.03-1.76,3.86-3.65,3.82-1.97-.04-3.31-1.46-3.31-3.51Z"/>
        <path class="cls-3" d="m183.96,71.88c.04-2.2,1.61-3.8,3.64-3.71,1.87.09,3.36,1.71,3.31,3.59-.06,2.04-1.86,3.82-3.75,3.72-1.99-.11-3.24-1.52-3.21-3.61h.01Z"/>
        <path class="cls-3" d="m58.52,183.24c-2.04-.03-3.54,1.58-3.54,3.81,0,2.05,1.34,3.46,3.31,3.51,1.89.04,3.65-1.79,3.65-3.83,0-1.88-1.54-3.46-3.42-3.48h0Z"/>
        <path class="cls-3" d="m54.98,200.99c0,2.05,1.32,3.46,3.31,3.51,1.89.04,3.65-1.79,3.65-3.82,0-1.88-1.54-3.46-3.41-3.49-2.04-.03-3.55,1.57-3.55,3.81Z"/>
        <path class="cls-3" d="m54.98,214.85c-.04,2.08,1.21,3.49,3.21,3.61,1.89.1,3.69-1.68,3.75-3.72.06-1.88-1.44-3.51-3.31-3.59-2.04-.1-3.61,1.5-3.64,3.71h-.01Z"/>
        <path class="cls-3" d="m58.52,183.24c1.87.03,3.42,1.6,3.42,3.48,0,2.03-1.75,3.86-3.65,3.83-1.97-.04-3.31-1.46-3.31-3.51,0-2.23,1.5-3.84,3.54-3.81h0Z"/>
        <path class="cls-3" d="m54.98,200.99c0-2.23,1.5-3.84,3.55-3.81,1.87.03,3.41,1.61,3.41,3.49,0,2.03-1.76,3.86-3.65,3.82-1.97-.04-3.31-1.46-3.31-3.51Z"/>
        <path class="cls-3" d="m54.98,214.85c.04-2.2,1.61-3.8,3.64-3.71,1.87.09,3.36,1.71,3.31,3.59-.06,2.04-1.86,3.82-3.75,3.72-1.99-.11-3.24-1.52-3.21-3.61h.01Z"/>
        <path class="cls-3" d="m147.63,47.01c.04-2.2,1.61-3.8,3.64-3.71,1.87.09,3.36,1.71,3.31,3.59-.06,2.04-1.86,3.82-3.75,3.72-1.99-.11-3.24-1.52-3.21-3.61h.01Z"/>
        <path class="cls-3" d="m143.93,108.44c3.72,4.91,7.37,9.72,11.02,14.52,1.26,1.66,2.54,3.32,3.78,5,1.14,1.54,1.06,3.05-.16,3.91-1.25.88-2.66.53-3.83-1-4.33-5.69-8.64-11.37-12.97-17.07-.27-.35-.55-.68-.93-1.16-.42.5-.8.93-1.15,1.39-3.97,5.26-7.95,10.53-11.92,15.79-.27.35-.51.72-.83,1.02-1.01.93-2.15,1.08-3.31.29-1.06-.73-1.27-2.2-.46-3.38.97-1.4,2.04-2.74,3.06-4.1,3.8-5.04,7.6-10.08,11.46-15.21-3.48-4.6-6.93-9.14-10.37-13.69-.83-1.09-1.69-2.17-2.49-3.28-.98-1.37-.83-2.78.31-3.65,1.11-.86,2.59-.63,3.61.68,3.82,4.96,7.59,9.97,11.39,14.96.17.22.35.42.65.81.4-.5.78-.92,1.11-1.38,3.44-4.56,6.88-9.13,10.32-13.69.23-.31.46-.62.71-.91.98-1.08,2.34-1.27,3.39-.5,1.12.82,1.36,2.21.49,3.51-.73,1.09-1.57,2.11-2.36,3.17-3.47,4.61-6.94,9.22-10.53,13.98h0Z"/>
        <path class="cls-3" d="m84.65,104.44v-13.59c0-2.24.87-3.37,2.52-3.34,1.62.03,2.45,1.18,2.45,3.43,0,8.5.32,17.03-.1,25.51-.32,6.42,6.62,11.55,12.4,10.76,2.69-.37,5.12-1.34,7.16-3.16,2.08-1.86,3.22-4.1,3.21-6.98-.06-8.56-.02-17.12-.02-25.69,0-.5-.03-1,.02-1.49.18-1.54,1.22-2.48,2.64-2.39,1.34.08,2.27,1.04,2.28,2.54.04,4.47.02,8.95.02,13.42v12.43c0,7.71-4.01,13.2-11.36,15.56-8.98,2.87-19.25-2.69-20.97-11.47-.39-2.03-.21-4.17-.23-6.28-.03-3.09,0-6.19,0-9.28v.02Z"/>
        <path class="cls-3" d="m86.53,170.51v-13.59c0-2.24.87-3.37,2.52-3.34,1.62.03,2.45,1.18,2.45,3.43,0,8.5.32,17.03-.1,25.51-.32,6.42,6.62,11.55,12.4,10.76,2.69-.37,5.12-1.34,7.16-3.16,2.08-1.86,3.22-4.1,3.21-6.98-.06-8.56-.02-17.12-.02-25.69,0-.5-.03-1,.02-1.49.18-1.54,1.22-2.48,2.64-2.39,1.34.08,2.27,1.04,2.28,2.54.04,4.47.02,8.95.02,13.42v12.43c0,7.71-4.01,13.2-11.36,15.56-8.98,2.87-19.25-2.69-20.97-11.47-.39-2.03-.21-4.17-.23-6.28-.03-3.09,0-6.19,0-9.28v.02Z"/>
        <path class="cls-3" d="m142.04,161.16c.04,2.21.11,4.89.17,7.56.19,8.02.38,16.05.56,24.07.07,3.09-1.07,4.81-2.98,4.66-2.05-.16-3.26-2.05-3.34-5.3-.26-10.22-.51-20.42-.72-30.64-.06-2.46,1.04-3.98,2.72-4.05,1.57-.07,3.06,1.3,3.62,3.69h-.01Z"/>
        <path class="cls-3" d="m138.25,144.37c1.87.03,3.42,1.6,3.42,3.48,0,2.03-1.75,3.86-3.65,3.83-1.97-.04-3.31-1.46-3.31-3.51,0-2.23,1.5-3.84,3.54-3.81Z"/>
      </g>
    </g>
  </g>
  <circle class="cls-1" cx="125.11" cy="126.01" r="122.18"/>
</svg>