<?xml version="1.0" encoding="UTF-8"?>
<svg id="Layer_1" data-name="Layer 1" xmlns="http://www.w3.org/2000/svg" viewBox="0 0 1259.7 250.04">
  <defs>
    <style>
      .cls-1 {
        letter-spacing: -.02em;
      }

      .cls-2 {
        opacity: .71;
      }

      .cls-2, .cls-3 {
        isolation: isolate;
      }

      .cls-3 {
        font-family: Bruney, Bruney;
        font-size: 44px;
      }

      .cls-3, .cls-4 {
        fill: #4d0902;
      }

      .cls-5 {
        letter-spacing: -.05em;
      }

      .cls-6 {
        fill: none;
      }

      .cls-7 {
        letter-spacing: -.02em;
      }

      .cls-8 {
        letter-spacing: -.03em;
      }

      .cls-9 {
        letter-spacing: -.03em;
      }
    </style>
  </defs>
  <text class="cls-3" transform="translate(500.01 233.76)"><tspan class="cls-1" x="0" y="0">Web </tspan><tspan class="cls-8" x="105.42" y="0">d</tspan><tspan class="cls-5" x="133.5" y="0">e</tspan><tspan class="cls-1" x="156.9" y="0">veloper and UI/UX d</tspan><tspan class="cls-9" x="566.41" y="0">e</tspan><tspan class="cls-7" x="594.48" y="0">signer</tspan></text>
  <rect class="cls-6" width="740.6" height="241.5"/>
  <g class="cls-2">
    <path class="cls-4" d="m549.1,176.9c-20.8,0-41.4-11.2-41.4-32.7,0-13.3,8.4-26.5,23.1-29.8l.3.8c-10.3,3.6-16.2,14.2-16.2,25.5,0,22.9,17.5,34.3,35.1,34.3s34.3-11.1,34.3-33.4c-.2-36.7-61-37.3-61-70.8,0-16.9,13-24.4,26.8-24.4,5.7,0,11.4,1.2,16.5,3.6,4,1.6,6.9,3.6,8.8,3.6,1.5,0,2.6-1.2,3-4.2h.8v19.6h-.8c-3.7-14.2-16.6-21-28.5-21s-22.8,6.8-22.8,19.6c0,32.8,64.3,33.7,64.3,73.2.2,24.4-21.1,36.1-42.3,36.1Z"/>
  </g>
  <g class="cls-2">
    <path class="cls-4" d="m631.5,157.7v1.1h-26.9v-1.1c7.4,0,10.3-.1,10.3-7v-85h-22.3c-13.2.1-13.2.9-15.3,20.8h-1.2l1.3-22.5h81.2l1.4,22.5h-1.1c-2.1-20.2-2.1-20.8-16.2-20.8h-21.6v85c0,6.8,3,7,10.4,7Z"/>
  </g>
  <g class="cls-2">
    <path class="cls-4" d="m700.6,136.2l-6.6,22.5h-73.9v-1.1c7.3,0,10.3-.1,10.3-7v-78.6c0-6.9-3-7-10.3-7v-1.1h68.8l6.6,22.5-1.2.3c-6.4-20.7-7.6-21.1-21.3-21.1h-36.4v42.3h22.2c6.9,0,8.8-1.5,10-6.7h.8v15.3h-.8c-1.2-5.2-3.1-6.8-10-6.8h-22.2v40.6c0,6,2.2,6.6,7.6,6.7h33.9c15,0,14.8-1.2,21.3-21l1.2.2Z"/>
  </g>
  <g class="cls-2">
    <path class="cls-4" d="m770.2,136.2l-6.6,22.5h-73.9v-1.1c7.3,0,10.3-.1,10.3-7v-78.6c0-6.9-3-7-10.3-7v-1.1h26.8v1.1c-7.3,0-10.3.1-10.3,7v78.3c0,6,2.2,6.6,7.6,6.7h33.9c15,0,14.8-1.2,21.3-21l1.2.2Z"/>
  </g>
  <g class="cls-2">
    <path class="cls-4" d="m740.4,157.7v1.1h-24.9v-1.1c7.9,0,10,0,13.9-8.8l38.2-86.7h.8l38.4,86.4c3.9,7.8,4.9,9.1,13.2,9.1v1.1h-24.4v-1.1c8.7,0,8.7-1,3.1-13.6l-10.6-23.7h-43.6l-11.2,25.5c-4.8,10.9-1.8,11.8,7.1,11.8Zm4.8-39.3h42.1l-21.1-47.2-21,47.2Z"/>
    <path class="cls-4" d="m965.1,177.9c-29.1,0-58.2-17.7-91.2-19h-16.5v-1c7.3,0,10.2-.2,10.2-7v-78.7c0-6.9-2.8-7-10.2-7v-1h26.7v1c-7.2,0-10.2.2-10.2,7v78.3c0,5.8,2.1,6.9,7.2,7.3.8.2,1.5.2,2.2.2.3.1.5.1.8.1h-.3c29.2,2.4,56.8,14.1,83.7,14.1,13.2,0,26.1-2.8,39-10.8l.6.9c-14.3,11.6-28.1,15.6-42,15.6Z"/>
  </g>
  <g class="cls-2">
    <path class="cls-4" d="m549.1,176.9c-20.8,0-41.4-11.2-41.4-32.7,0-13.3,8.4-26.5,23.1-29.8l.3.8c-10.3,3.6-16.2,14.2-16.2,25.5,0,22.9,17.5,34.3,35.1,34.3s34.3-11.1,34.3-33.4c-.2-36.7-61-37.3-61-70.8,0-16.9,13-24.4,26.8-24.4,5.7,0,11.4,1.2,16.5,3.6,4,1.6,6.9,3.6,8.8,3.6,1.5,0,2.6-1.2,3-4.2h.8v19.6h-.8c-3.7-14.2-16.6-21-28.5-21s-22.8,6.8-22.8,19.6c0,32.8,64.3,33.7,64.3,73.2.2,24.4-21.1,36.1-42.3,36.1Z"/>
  </g>
  <g class="cls-2">
    <path class="cls-4" d="m631.5,157.7v1.1h-26.9v-1.1c7.4,0,10.3-.1,10.3-7v-85h-22.3c-13.2.1-13.2.9-15.3,20.8h-1.2l1.3-22.5h81.2l1.4,22.5h-1.1c-2.1-20.2-2.1-20.8-16.2-20.8h-21.6v85c0,6.8,3,7,10.4,7Z"/>
  </g>
  <g class="cls-2">
    <path class="cls-4" d="m700.6,136.2l-6.6,22.5h-73.9v-1.1c7.3,0,10.3-.1,10.3-7v-78.6c0-6.9-3-7-10.3-7v-1.1h68.8l6.6,22.5-1.2.3c-6.4-20.7-7.6-21.1-21.3-21.1h-36.4v42.3h22.2c6.9,0,8.8-1.5,10-6.7h.8v15.3h-.8c-1.2-5.2-3.1-6.8-10-6.8h-22.2v40.6c0,6,2.2,6.6,7.6,6.7h33.9c15,0,14.8-1.2,21.3-21l1.2.2Z"/>
  </g>
  <g class="cls-2">
    <path class="cls-4" d="m770.2,136.2l-6.6,22.5h-73.9v-1.1c7.3,0,10.3-.1,10.3-7v-78.6c0-6.9-3-7-10.3-7v-1.1h26.8v1.1c-7.3,0-10.3.1-10.3,7v78.3c0,6,2.2,6.6,7.6,6.7h33.9c15,0,14.8-1.2,21.3-21l1.2.2Z"/>
  </g>
  <g class="cls-2">
    <path class="cls-4" d="m740.4,157.7v1.1h-24.9v-1.1c7.9,0,10,0,13.9-8.8l38.2-86.7h.8l38.4,86.4c3.9,7.8,4.9,9.1,13.2,9.1v1.1h-24.4v-1.1c8.7,0,8.7-1,3.1-13.6l-10.6-23.7h-43.6l-11.2,25.5c-4.8,10.9-1.8,11.8,7.1,11.8Zm4.8-39.3h42.1l-21.1-47.2-21,47.2Z"/>
    <path class="cls-4" d="m965.1,177.9c-29.1,0-58.2-17.7-91.2-19h-16.5v-1c7.3,0,10.2-.2,10.2-7v-78.7c0-6.9-2.8-7-10.2-7v-1h26.7v1c-7.2,0-10.2.2-10.2,7v78.3c0,5.8,2.1,6.9,7.2,7.3.8.2,1.5.2,2.2.2.3.1.5.1.8.1h-.3c29.2,2.4,56.8,14.1,83.7,14.1,13.2,0,26.1-2.8,39-10.8l.6.9c-14.3,11.6-28.1,15.6-42,15.6Z"/>
  </g>
</svg>