<?xml version="1.0" encoding="UTF-8"?>
<svg id="Layer_1" data-name="Layer 1" xmlns="http://www.w3.org/2000/svg" viewBox="0 0 477 477">
  <defs>
    <style>
      .cls-1 {
        fill: #e5dfda;
      }

      .cls-2 {
        font-family: Bruney, Bruney;
        font-size: 310.27px;
      }

      .cls-3 {
        opacity: .61;
      }
    </style>
  </defs>
  <circle class="cls-1" cx="238.5" cy="238.5" r="238.5"/>
  <text class="cls-2" transform="translate(151.72 344.25) rotate(-3.15)"><tspan x="0" y="0">S</tspan></text>
  <path d="m234.75,249.5c-12.5,3.45-15.3,6.25-18.75,18.75-3.45-12.5-6.25-15.3-18.75-18.75,12.5-3.45,15.3-6.25,18.75-18.75,3.45,12.5,6.25,15.3,18.75,18.75Z"/>
  <g class="cls-3">
    <g>
      <path d="m125.38,75.34c.03,1.93-.13,3.87-.35,5.82-.21,1.8-.52,3.6-1.22,5.33-.43,1.04-.93,1.97-1.82,2.77-.14.1-.24.25-.38.35-.18.14-.43.27-.64.38-.58.27-1.19.53-1.81.74-1,.34-1.95.25-2.83-.03-.81-.26-1.53-.76-2.14-1.32-.29-.26-.54-.56-.79-.86-.99-1.2-1.76-2.53-2.44-3.9-1.62-3.25-2.83-6.91-3.67-10.56-.91-3.93-1.58-8.06-1.88-12.23-.27-3.86-.28-7.85.38-11.95.12-.68.29-1.39.53-2.03.18-.48.29-.68.58-.87.17-.12.43-.23.79-.31.23-.04.51-.11.79-.18.28-.07.48-.03.56.09.03.04.08.12.05.2.11.28.18.52.35.77.04.06.07.1.11.16.08.12,0,.24-.12.32-.05.03-.07.05-.11.08-.36.07-.73.14-1.04.06-.17.24-.15.4-.18.59-.38,3.22-.47,6.39-.37,9.5.1,1.97.18,3.97.43,5.84.35,2.65.69,5.34,1.19,7.87.5,2.55,1.28,5.12,2.09,7.54.62,1.85,1.37,3.69,2.31,5.42.49.9,1.08,1.81,1.75,2.64.24.3.51.6.78.87.66.66,1.51,1.22,2.56,1.44.59.09,1.05.04,1.5-.32.14-.11.32-.25.42-.39.54-.6.91-1.25,1.25-1.94.59-1.3.92-2.69,1.13-4.05.53-2.8.57-5.57.59-8.36.05-.45.03-.91.05-1.4-.02-.34-.06-.61-.22-.85-1.82-2.65-2.88-5.59-3.22-8.93-.04-.97-.03-1.97.21-3,.1-.42.24-.8.5-1.2.11-.19.24-.33.4-.43.11-.07.24-.1.43-.16.54-.14.81-.21,1.36-.35.4-.08.63.06.79.31.04.07.06.1.1.17.13.21.21.45.28.69.31,1.08.43,2.21.54,3.41.24,2.1.4,4.27.47,6.44.01.46.04.93.02,1.33-.02.36.1.69.29.98.57.85,1.26,1.63,2,2.36,1.05,1.03,2.21,2.06,3.62,2.75,1.38.67,2.87,1.16,4.55,1.2.85-.02,1.62-.26,2.34-.7.19-.12.36-.27.55-.39,1.53-1.15,2.48-2.61,3.34-4.17.29-.62.54-1.21.8-1.8,1.14-2.71,1.59-5.39,1.84-8.18.35-4.22.08-8.32-.74-12.27-.5-2.42-1.08-4.84-1.79-7.21-.44-1.47-.92-2.94-1.4-4.39-.52-1.54-1.13-3.1-1.83-4.56-.13-.27-.19-.4-.32-.66-.8-1.52-1.6-3.04-2.87-4.27-.27-.25-.56-.54-.9-.76-.1-.06-.21-.12-.33-.06s-.14.18-.16.3c-.02.12.03.21.07.29.04.09.09.18.19.23.08.01.23,0,.33.05.06-.03.08.01.1.06t-.02.12c-.04.07-.08.15-.14.18-.06,0-.09,0-.14.02-.53,0-1.13.08-1.61-.02-.42-.09-.75-.28-.88-.54-.15-.31-.12-.71.12-1.16.12-.22.32-.44.51-.53.18-.09.33-.11.47-.13.97-.05,1.97-.17,2.87-.05.64.08,1.18.41,1.65.78.72.57,1.25,1.29,1.69,2.02.45.73.91,1.47,1.28,2.27.31.67.56,1.33.85,1.98.62,1.41,1.09,2.96,1.52,4.49.77,2.72,1.48,5.55,2.01,8.39.52,2.79,1.06,5.66,1.23,8.51.21,3.42.09,6.92-.5,10.33-.46,2.68-1.26,5.22-2.75,7.69-.71,1.13-1.57,2.19-2.69,3.03-.24.14-.5.35-.79.53-.24.14-.55.27-.86.41-1.65.61-3.33,1.08-5.12,1.02-.69-.02-1.35-.11-2.03-.31-2.05-.52-3.78-1.53-5.23-2.83-.37-.34-.71-.63-1.09-.97-.09.18-.09.29-.1.48Zm-1.95-8.61c-.12-1.73-.32-3.41-.75-4.99-.07,1.73.22,3.41.75,4.99Z"/>
      <path d="m154.78,50.32c.3.21.61.32,1,.21.28-.08.57-.19.84-.31.44-.19.91-.44,1.31-.72,1.21-.83,2.27-1.85,3.28-2.88,2.19-2.3,4.26-4.7,6.14-7.3.26-.35.46-.74.73-1.09.08-.13.24-.24.36-.28.23-.08.55-.09.73.06,0,.02,0,.03.02.05.02.05.05.14,0,.21-.1.16-.15.24-.25.4-1.56,2.62-3.45,5.03-5.51,7.35-.93,1.09-1.88,2.1-2.96,3.07-.62.52-1.32,1.02-2.04,1.43-.22.09-.36.21-.58.3-.27.12-.56.19-.86.26-1.19.24-2.32.18-3.3-.11-.8-.24-1.38-.73-1.66-1.35-.08-.18-.09-.34-.15-.47-.81-2.54-.56-5.14.81-7.82.55-1.09,1.29-2.1,2.48-2.86.16-.12.27-.17.45-.24.35-.14.74-.2,1.16-.15.49.06,1.06.1,1.61.15.41.04.68.21.79.48.04.09,0,.16.03.25.11,1.65-.4,3.22-1.58,4.72-.42.44-.87.78-1.32.97-.51.21-1.07.29-1.67.28-.32.03-.53.01-.64.06-.17.07-.17.23-.26.65-.04.98-.03,1.94.13,2.89.06.29.15.63.24.86.12.3.35.71.67.94Zm1.44-7.35c.59-.99.85-2,.85-3.01,0-.16.06-.34.03-.44-.02-.05-.09-.07-.09-.07-.08-.02-.13,0-.13,0-.17.07-.29.28-.39.37-1.26,1.21-1.89,2.6-2.34,4.07-.06.18-.07.3-.04.39.04.09.25.11.55.03.07-.03.1-.04.17-.07.66-.33,1.07-.78,1.4-1.28Z"/>
      <path d="m172.15,32.36c.32-.47.75-.97,1.2-1.41.4-.39.9-.69,1.39-.84.3-.09.68-.15,1-.15.33,0,.7-.05,1.03-.05.84-.04,1.37.22,1.82.71.37.4.58.91.72,1.44.05.17.07.26.12.43.11.84.2,1.64.19,2.51-.03.11-.05.27-.01.41.04.14.11.17.3.17.47-.13.7-.2,1.17-.33.88-.24,1.83-.53,2.65-.92.54-.26,1.04-.58,1.29-1.1.03-.11.26-.22.44-.26.24-.06.48-.07.64.04,0,.04.01.06.02.1.01.05.04.14-.01.21-.08.43-.38.76-.75,1.01-.53.39-1.17.64-1.72.86-.59.24-1.27.39-1.86.55-.64.18-1.25.32-1.88.48-.28.07-.32.2-.4.37-.05.48-.11.96-.22,1.45-.28,1.88-.86,3.7-1.73,5.51-.49,1.03-1.16,1.95-1.96,2.79-.59.62-1.24,1.08-2.07,1.35-.39.13-.81.2-1.26.27-.34.05-.71.09-1.07.11-1.95.26-3.38-.79-3.93-1.95-.07-.2-.11-.31-.18-.51-.75-2.08-.42-4.15,1.04-6.28.13-.2.25-.4.24-.61,0-2.45.37-4.99.73-7.43.48-3.27,1.16-6.61,2.15-9.91.48-1.59.99-3.14,1.72-4.7.26-.54.51-1.13.85-1.64.14-.25.29-.44.45-.64.1-.13.23-.17.36-.21.06-.02.19-.06.34-.04.38.1.88.16,1.24.22.22.04.37.1.4.2.03.1-.01.21-.12.34-.4.57-.65,1.18-.97,1.76-.31.55-.58,1.14-.76,1.71-1.65,4.38-2.67,8.79-3.38,13.21-.08.59-.21,1.21-.27,1.85-.07.18-.07.39-.07.59.02.05.07.03.07.03.34-.58.68-1.16,1.04-1.68Zm-1.18,15.04c.41.12.72.12,1.05,0,.17-.06.33-.11.48-.22.41-.24.81-.53,1.14-.85.49-.58.97-1.2,1.32-1.83,1.34-2.4,1.96-4.91,2.27-7.47.03-.11.02-.16,0-.21-.04-.14-.16-.11-.4-.08-.93.07-1.88.25-2.74.38-.47.07-.92.14-1.38.29-.29.09-.62.25-.9.4-.27.14-.42.29-.53.54-.14.56-.33,1.15-.53,1.69-.14.36-.2.54-.43.61-.11.04-.3.05-.55.08-.11.04-.19.01-.24.03-.19.01-.3.05-.36.07-.17.06-.21.13-.3.42-.45,1.3-.49,2.63-.05,3.88.07.19.1.28.16.46.35.82,1.02,1.47,2,1.81Zm2.76-10.79c1.03-.14,2.14-.31,3.19-.42.05-.01.07-.02.12-.03.23-.07.26-.18.28-.34.03-.32,0-.62.04-.94-.01-.92-.1-1.88-.34-2.73-.04-.13-.06-.2-.1-.33-.14-.27-.22-.51-.41-.75-.22-.28-.38-.4-.62-.33-.12.04-.3.18-.48.35-.2.18-.45.45-.65.66-1.3,1.53-2.2,3.22-2.85,4.99-.06.02-.03.11-.06.23.67-.12,1.27-.26,1.88-.35Z"/>
      <path d="m211.82,24.5c.49-1.22,1.02-2.46,1.6-3.64.64-1.32,1.36-2.71,2.2-4.04.38-.69.83-1.39,1.29-2.08,1.36-2.13,2.96-4.22,4.75-6.2,1.05-1.13,2.12-2.2,3.34-3.17,2.05-1.67,4.43-3.19,7.26-4.12,1.21-.43,2.5-.66,3.79-.68.41,0,.82-.01,1.22.04.74.09,1.49.24,2.17.54.34.2.81.4,1.21.56,1.41.56,2.25,1.47,2.84,2.49.77,1.35,1.09,2.8,1.19,4.23.04.54.09,1.1.07,1.6-.06,1.8-.51,3.51-1.02,5.23-1.04,3.51-2.71,6.87-4.71,9.99-1.62,2.53-3.59,5-5.61,7.39-1.33,1.58-2.79,3.12-4.25,4.58-1.55,1.56-3.25,3.18-4.96,4.61-1.37,1.14-2.77,2.25-4.19,3.22-2,1.43-4.08,2.64-6.33,3.67-1.3.61-2.62,1.09-4.07,1.3-.13.02-.19.03-.32.05-1.57.18-3.1,0-4.56-.43-1.21-.36-2.07-1.3-2.27-2.42-.03-.15-.06-.34-.03-.5-.08-1.09.2-2.15.71-3.15.65-1.26,1.44-2.41,2.5-3.49.4-.42.6-.87.55-1.39-.08-.71.06-1.52.14-2.23.35-3.22,1-6.44,1.84-9.61.99-3.72,2.09-7.51,3.48-11.23,1.09-2.93,2.24-5.82,3.72-8.62.4-.69.82-1.33,1.23-2.02.06-.11.18-.27.3-.38.24-.32.36-.48.57-.5.2-.02.42.04.75.13.31.09.69.19,1.03.31.21.08.35.12.36.27,0,.05-.07.16-.12.26-.06.14-.18.32-.3.43-.3.47-.53.95-.63,1.4-.06.1-.11.26-.1.36,0,.1.08.14.09.24.07.04.07.09.08.14,0,.05-.06.1-.12.11-.05-.02-.08-.02-.14-.04-.07,0-.14-.04-.2-.03-.2.02-.25.17-.37.33-1.08,2.2-2.05,4.44-2.89,6.59-1.3,3.32-2.46,6.68-3.49,10.07-.23.68-.45,1.41-.62,2.08-.04.16-.09.31-.13.42,0,.05.07.04.07.04.38-.9.74-1.81,1.1-2.69Zm-1.84,12.02c.82-.51,1.66-.87,2.56-1.18.34-.14.69-.18.98-.22.52-.06.94-.06,1.42.04.18.03.36.06.38.21.02.15-.09.31-.2.37-.27.23-.55.31-.83.49-1.77.95-3.52,1.97-5.03,3.25-1.28,1.09-2.46,2.27-3.39,3.63-.47.68-.85,1.43-1.09,2.14-.21.63-.35,1.32-.23,2,.04.24.14.48.23.72.39.99,1.67,1.68,2.81,1.51.81-.13,1.57-.24,2.31-.49,1.48-.51,2.9-1.15,4.25-1.91,1.67-.94,3.28-1.96,4.76-3.06,1.62-1.2,3.17-2.56,4.67-3.93,1.37-1.25,2.74-2.57,3.98-3.88,1.49-1.58,2.91-3.22,4.23-4.91,1.9-2.35,3.68-4.81,5.23-7.33,1.74-2.85,3.26-5.87,4.23-8.94.64-2.01,1.06-4.04,1.11-6.14,0-.32.01-.48.02-.8-.04-1.05-.19-2.19-.52-3.16-.28-.84-.77-1.64-1.36-2.31-.44-.5-1.03-.73-1.74-.8-.33-.03-.61-.05-.95-.05-.88,0-1.69.11-2.57.33-2.02.48-3.76,1.33-5.41,2.3-1.65.96-3.07,2.07-4.4,3.26-1.61,1.45-3.13,3.05-4.45,4.65-1.5,1.82-2.78,3.68-3.93,5.59-1.56,2.58-2.89,5.37-4.02,8.09-1.39,3.36-2.5,6.82-3.51,10.27-.04.16-.08.31-.05.51.23-.03.39-.15.5-.22Z"/>
      <path d="m245.86,33.1c.17.32.4.56.79.63.28.05.58.08.87.09.47.02,1,0,1.47-.07,1.42-.22,2.81-.69,4.15-1.19,2.93-1.14,5.82-2.43,8.62-3.98.39-.21.73-.47,1.12-.68.13-.09.32-.11.44-.1.24.03.53.17.62.38,0,.02,0,.03,0,.05,0,.05-.02.15-.09.19-.16.1-.24.15-.4.26-2.54,1.72-5.27,3.1-8.1,4.32-1.3.59-2.57,1.1-3.95,1.51-.78.2-1.6.35-2.42.4-.23-.01-.41.03-.64.02-.29-.02-.58-.08-.87-.14-1.15-.31-2.12-.87-2.85-1.57-.6-.57-.9-1.28-.87-1.98,0-.2.07-.35.08-.5.39-2.69,1.73-4.97,4.11-6.81.96-.76,2.05-1.36,3.43-1.52.19-.04.31-.03.5-.02.37.02.74.15,1.09.37.41.27.9.56,1.36.85.35.22.51.49.49.79,0,.1-.07.15-.08.25-.62,1.56-1.76,2.78-3.45,3.63-.56.22-1.11.33-1.59.31-.54-.03-1.07-.21-1.6-.48-.3-.11-.47-.22-.59-.23-.18,0-.25.14-.51.48-.46.88-.86,1.77-1.14,2.71-.07.3-.14.64-.16.9-.02.34,0,.81.18,1.16Zm4.46-6.1c.95-.65,1.62-1.46,2.06-2.38.07-.15.21-.29.21-.39,0-.05-.05-.1-.05-.1-.06-.05-.12-.06-.12-.06-.18-.01-.38.13-.51.17-1.64.55-2.8,1.54-3.83,2.7-.13.14-.19.24-.2.34,0,.1.17.21.47.27.07,0,.11,0,.18,0,.73-.01,1.28-.23,1.79-.56Z"/>
      <path d="m263.53,25.24c.14-.37.35-.77.58-1.15.15-.18.28-.27.41-.25.12.01.25.03.42.15.35.2.7.39.97.63.23.13.35.2.33.35,0,.05-.02.15-.1.24-.78,1.57-1.18,3.24-1.4,4.89-.07.55-.1,1.15-.17,1.7-.11.8-.1,1.66.02,2.49.02.26.07.36.19.38.06,0,.18-.03.38-.15.89-.39,1.68-.94,2.38-1.55,1.42-1.07,2.65-2.3,3.78-3.55.14-.13.23-.27.25-.37.02-.1-.02-.26-.18-.39-.55-.8-.71-1.69-.57-2.59.02-.1.02-.15.04-.25.23-1.44,1-2.7,2.31-3.72.5-.33,1.06-.59,1.65-.7.27-.06.52-.07.77-.02.25.04.52.13.71.33.16.16.39.32.56.46.68.48.77,1.01.67,1.55-.01.08-.02.12-.04.2-.24.62-.6,1.17-.96,1.72-.93,1.27-1.95,2.42-3.02,3.57-.15.18-.24.32-.25.37-.03.15.08.27.48.44.91.41,1.79.67,2.74.84,1.13.21,2.29.28,3.5.11.38-.03.77-.1,1.16-.18.2-.06.38-.02.5,0,.24.05.41.14.55.32.05.06.09.17.08.22-.01.05-.07.04-.14.07-.13.02-.2.06-.27.1-1.59.44-3.21.57-4.93.25-1.36-.26-2.64-.63-3.73-1.43-.16-.13-.27-.2-.39-.22-.06,0-.2.07-.35.25-1.29,1.42-2.72,2.78-4.17,4.04-.54.43-1.14.85-1.79,1.22-.39.25-.76.35-1.11.3-.29-.04-.57-.18-.89-.37-.17-.07-.33-.19-.55-.27-.66-.34-.99-.92-1.11-1.51-.16-.76-.24-1.62-.24-2.36,0-.59.04-1.26.12-1.91.06-.52.1-.78.16-1.3.12-1,.33-2.06.68-2.96Zm9,2.79c.39-.45.77-.89,1.11-1.4.79-.94,1.54-1.99,2.06-3.07.1-.19.13-.39.18-.63.02-.1-.03-.16-.1-.17q-.06-.01-.13.03c-.4.08-.69.29-.98.5-1.29.86-1.93,2.03-2.22,3.41-.02.12-.03.18-.05.3-.05.3-.05.66.02.97q.05.06.11.07Z"/>
      <path d="m280.83,37.49c.11.35.3.62.68.77.27.1.56.18.85.24.46.1.99.17,1.47.18,1.45.02,2.9-.2,4.32-.47,3.1-.63,6.18-1.42,9.23-2.48.42-.14.8-.35,1.23-.48.15-.06.34-.06.46-.02.23.07.5.26.55.48,0,.02,0,.03-.01.05-.02.05-.04.15-.12.18-.18.07-.26.11-.44.18-2.81,1.27-5.76,2.17-8.77,2.9-1.39.37-2.74.65-4.17.82-.8.07-1.65.07-2.47-.01-.23-.05-.41-.04-.64-.09-.29-.06-.56-.18-.83-.29-1.09-.5-1.95-1.23-2.56-2.05-.5-.67-.67-1.42-.52-2.12.04-.2.13-.33.16-.48.85-2.61,2.57-4.64,5.23-6.07,1.08-.59,2.26-1,3.65-.93.19,0,.31.02.5.07.36.09.71.27,1.02.56.36.34.79.71,1.2,1.08.31.28.43.58.35.87-.03.1-.1.13-.12.23-.89,1.44-2.22,2.46-4.04,3.01-.59.12-1.15.14-1.63.03-.53-.12-1.02-.39-1.5-.75-.27-.16-.43-.3-.55-.33-.18-.04-.27.1-.58.39-.61.8-1.16,1.61-1.6,2.5-.12.28-.25.61-.31.86-.08.33-.14.81-.02,1.18Zm5.46-5.3c1.05-.48,1.85-1.17,2.45-2.02.1-.13.25-.25.28-.35.01-.05-.04-.11-.04-.11-.05-.06-.11-.08-.11-.08-.18-.04-.4.06-.53.08-1.72.26-3.04,1.05-4.26,2.03-.15.12-.23.21-.26.31-.02.1.13.24.42.35.07.02.11.02.18.04.72.11,1.31-.01,1.87-.25Z"/>
      <path d="m297.16,37.71c1.63-2.57,3.69-4.99,5.79-7.3,2.44-2.68,5.22-5.21,8.16-7.49,1.71-1.35,3.56-2.6,5.37-3.84.34-.15.63-.37.98-.52.18-.1.32-.1.45-.05.13.05.24.14.35.23.27.26.53.55.73.75.19.19.25.31.21.4-.02.05-.12.12-.22.19-.23.24-.51.41-.79.58-3.23,2.34-6.37,4.7-9.21,7.27-4.01,3.63-7.61,7.56-10.41,11.95-.79,1.14-1.4,2.33-1.79,3.59-.08.27-.12.41-.21.68-.09.5-.17.95-.03,1.47.08.34.14.52.36.59.11.03.29.04.47.04.66.04,1.3-.07,1.97-.23.86-.2,1.76-.5,2.62-.85,2.65-1.05,5.28-2.22,7.96-3.35,1.38-.58,2.83-1.12,4.13-1.77.15-.05.3-.1.48-.04.05.02.07.03.12.04.27.16.42.27.37.41-.02.05-.11.12-.28.22-1.19.68-2.49,1.17-3.74,1.73-2.59,1.2-5.17,2.39-7.8,3.53-1.1.48-2.23.91-3.41,1.17-.34.1-.72.14-1.02.15-.43.02-.9-.02-1.29-.14-.28-.09-.49-.2-.74-.34-.2-.11-.47-.25-.67-.37-.72-.43-1.19-1.07-1.29-1.76-.1-.76-.02-1.59.21-2.36.04-.14.06-.2.1-.34.45-1.5,1.23-2.92,2.07-4.25Z"/>
      <path d="m321.13,44.99c-.74.79-1.58,1.52-2.54,2.07-.83.48-1.79.85-2.75,1.12-.63.13-1.3.18-1.96-.08-.22-.09-.42-.22-.61-.4-.33-.29-.64-.64-.96-.98-.19-.18-.32-.34-.41-.59-.26-.65-.27-1.3-.09-1.94.07-.19.11-.28.18-.47.67-1.75,1.88-3.2,3.57-4.29.17-.1.21-.19.25-.29.06-.14.09-.24.03-.42-.07-.68.02-1.24.21-1.72.72-1.85,3.02-2.49,4.95-1.98.2.02.37.1.55.17.35.14.67.38.91.65.49.48.91.96,1.25,1.46.36.55.48,1.15.5,1.71.03.73-.15,1.43-.43,2.09-.14.33-.3.66-.49.95-.31.51-.6,1.07-.94,1.53-.02.06-.04.08-.06.14-.06.14-.02.21.2.31.23.1.34.15.57.25,1.53.67,2.99,1.16,4.64,1.31.19.03.36,0,.54.02.13.01.31-.08.43-.03.06.03.03.07.09.1.26.18.36.4.54.59.03.07.07.15.05.19-.04.09-.13.12-.2.13-.11.01-.27-.01-.42.03-.75-.01-1.54-.12-2.32-.29-1.21-.26-2.43-.6-3.45-1.04-.36-.16-.54-.24-.9-.39q-.56-.24-.92.1Zm-7.57,1.34c-.04.26-.02.37.09.42.11.04.24.04.37.04.69.05,1.34-.12,1.92-.43,1.37-.65,2.46-1.52,3.43-2.55.1-.07.19-.14.21-.19.04-.09-.05-.19-.32-.35-.68-.45-1.24-1.01-1.79-1.61-.13-.16-.23-.26-.29-.28-.17-.07-.32-.02-.53.17-1.22,1.05-2.23,2.21-2.83,3.64-.15.37-.28.71-.26,1.15Zm8.97-9.04c0-.33-.08-.47-.37-.59-.12-.05-.18-.07-.29-.12-.61-.2-1.15-.2-1.74-.11-1.36.16-2.29.78-2.7,1.82-.06.14-.06.31-.11.45-.11.28-.09.56.22.8.15.12.35.33.48.47.21.21.33.35.27.49-.04.09-.17.16-.31.26-.11.09-.21.19-.25.28s.06.19.25.37c.61.47,1.18.86,1.82,1.24.11.05.17.07.28.12.17.07.25.05.42-.21.49-.68.98-1.35,1.32-2.15.22-.52.34-.79.56-1.31.18-.59.31-1.2.15-1.81Z"/>
      <path d="m335.53,44.94c1.09-.19,2.31-.32,3.55-.08.25.07.42.16.59.25.28.15.49.31.72.55.32.38.48.57.8.95.44.53.56,1.12.4,1.67-.09.3-.18.6-.33.87-.27.49-.65.99-1.03,1.36-.22.21-.44.48-.64.64-.08.06-.13.1-.15.15-.07.13.04.19.23.36.7.38,1.05.57,1.75.96.87.49,1.75.98,2.72,1.3.52.24,1.05.31,1.53.12.11-.06.16-.03.27.04.05.03.11.06.19.17.06.03.08.11.17.22.22.25.25.44.17.58-.05.09-.19.19-.37.26-.37.14-.83.05-1.2-.05-.94-.25-1.86-.66-2.75-1.1-1.24-.7-1.86-1.04-3.11-1.72q-.49-.27-.85,0c-1.58,1.36-3.29,2.47-5.25,3.23-1,.34-2.05.55-3.14.46-.37-.07-.68-.11-1-.27-.32-.16-.65-.46-.9-.73-.21-.22-.4-.54-.68-.79-.74-.81-.86-1.66-.58-2.54.03-.21.1-.35.19-.53.18-.37.38-.66.7-.91,1.99-1.76,4.45-2.12,7.4-1.07.71.25,1.43.54,2.09.85.22.1.39.2.56,0,.83-.77,1.73-1.51,2.26-2.5.1-.18.19-.37.26-.61.1-.34.13-.51-.1-.63-.11-.06-.25-.07-.44-.12-.72-.15-1.29-.15-1.96-.1-2.31.19-4.4.92-6.3,1.75-1.94.84-3.73,1.88-5.42,3.06-.86.55-1.54,1.3-2.26,1.99-2.11,2-4.16,4.05-6.16,6.04-1.49,1.49-2.93,3.13-4.43,4.62-.93.92-1.85,1.92-2.8,2.9-.33.36-.44.48-.69.37-.1-.04-.24-.15-.46-.3-.18-.12-.33-.19-.46-.3-.21-.2-.24-.27-.18-.41.03-.08.05-.11.08-.19.17-.26.38-.5.53-.72.91-1.05,1.91-2.07,2.83-3.06,1.38-1.48,2.86-2.99,4.32-4.46,1-1.01,1.99-1.96,3.02-2.96,2.12-2.18,4.29-4.33,6.54-6.44,1.22-1.18,2.57-2.29,3.81-3.46.88-.82,1.7-1.68,2.69-2.39.33-.24.53-.37.7-.28.17.08.3.27.52.53.17.2.31.38.44.55.22.28.31.38.24.52-.02.05-.12.11-.23.17-.81.63-1.57,1.33-2.32,1.99-.35.28-.66.64-1.01.93,1.62-.63,3.15-1.31,4.9-1.68Zm-7.78,8.85c.03.35.2.55.47.68.06.03.1.05.16.08.8.28,1.54.14,2.23-.03.95-.27,1.84-.62,2.6-1.08,1.02-.63,2.05-1.29,3.02-2.06.1-.06.15-.15.17-.2.07-.14-.04-.19-.37-.37-.98-.4-2.06-.6-3.07-.66-1.68-.1-3.01.39-4.12,1.27-.34.29-.63.6-.83,1.01-.22.46-.29.88-.26,1.35Z"/>
      <path d="m341.39,60.88c0,.38.1.7.42.96.23.19.49.35.75.51.42.25.91.48,1.38.65,1.4.49,2.89.75,4.36.95,3.22.4,6.48.65,9.79.62.46,0,.89-.07,1.35-.06.16-.01.35.05.45.13.21.15.41.41.39.65-.01.02-.02.03-.03.04-.03.04-.09.13-.17.13-.19.01-.29.02-.49.03-3.14.3-6.3.21-9.47-.08-1.47-.1-2.88-.26-4.33-.56-.8-.2-1.63-.47-2.41-.81-.21-.12-.39-.17-.59-.3-.26-.15-.49-.35-.72-.55-.9-.84-1.52-1.82-1.86-2.8-.28-.81-.21-1.59.15-2.21.1-.18.23-.28.31-.41,1.63-2.25,3.93-3.66,6.97-4.18,1.24-.22,2.51-.23,3.85.29.19.06.3.12.46.22.33.2.61.49.82.87.25.44.55.95.84,1.43.22.37.24.7.07.96-.06.09-.14.1-.19.18-1.31,1.11-2.93,1.66-4.87,1.6-.61-.08-1.17-.24-1.6-.49-.48-.29-.88-.71-1.23-1.21-.21-.25-.32-.43-.43-.49-.16-.1-.29,0-.69.19-.84.57-1.63,1.18-2.33,1.9-.21.23-.43.51-.57.73-.18.29-.38.73-.38,1.14Zm6.96-3.36c1.18-.12,2.17-.53,3.01-1.16.14-.1.32-.16.38-.25.03-.04,0-.12,0-.12-.03-.08-.08-.11-.08-.11-.16-.1-.41-.07-.54-.09-1.76-.3-3.29.03-4.78.58-.19.07-.29.12-.35.21-.05.09.06.27.3.47.06.04.1.06.16.1.67.34,1.28.41,1.9.37Z"/>
      <path d="m361.14,66.9c2.12-1.01,4.4-1.64,7-1.75.53-.05,1.05.01,1.56.21.19.08.34.2.5.31.21.16.36.28.51.52.46.8.99,1.61,1.04,2.49.05.57.35.93.7,1.21.2.16.41.32.64.45.81.45,1.64.66,2.44.52.23-.08.37-.03.47.05.05.04.12.16.19.29.17.41.26.61.16.73-.1.12-.25.2-.53.23-1.11.22-2.32-.04-3.38-.89-.06-.05-.09-.07-.15-.12-.17-.2-.37-.36-.46-.56-.28-.68-.68-1.33-.98-2.01-.13-.36-.22-.62-.27-.92-.05-.26-.05-.36-.15-.44-.1-.08-.24-.12-.37-.16-.69-.27-1.36-.26-2.02-.24-2.16.18-4.17.75-6.08,1.45-1.69.62-3.23,1.47-4.8,2.31-.22.1-.44.19-.71.25-.19.06-.27.06-.37,0-.1-.07-.15-.13-.22-.22-.17-.21-.33-.48-.56-.7-.26-.37-.27-.69-.04-1.02.38-.55.76-1.1,1.29-1.54,1.9-1.87,3.93-3.58,6.28-5,.77-.53,1.64-.98,2.6-1.3.31-.09.59-.15.84-.16.17,0,.27.07.43.19.05.04.16.11.24.23.2.4.48.79.67,1.19.1.2.14.36.05.48-.06.08-.17.13-.34.13-.23.09-.42.14-.67.14-.55-.02-1.03.2-1.43.42-1.99.97-3.62,2.27-5.24,3.57-.02.03-.04.05-.06.08t0,.12c.41-.15.78-.33,1.22-.52Z"/>
    </g>
  </g>
  <g class="cls-3">
    <g>
      <path d="m99.07,412.11c.23-.15.6-.2.79-.48.02-.04.07-.11.08-.21,0-.01.01-.02.02-.03.05-.07.2-.06.3-.05.06,0,.11.03.11.03.09.06.11.13.13.19.13.29.23.62.33.94.06.2.04.33-.03.44-.05.07-.14.11-.19.18-.51.57-1.29.86-2.14,1.04-.09.04-.16.04-.23.05-.07,0-.12.07-.14.11-.02.03-.05.07-.05.17.23.72.65,1.36,1.24,1.96.09.06.19.11.3.05.08-.04.18-.08.27-.02.05.03.07.1.09.16.18.32.38.71.47,1.07.04.13.03.24.02.37,0,.09-.02.14-.07.21-.07.11-.3.16-.5.07-.09-.06-.25-.12-.34-.18-.09-.06-.16-.16-.3-.25-.54-.57-.9-1.21-1.18-1.87-.22-.46-.37-.92-.59-1.37-.02-.17-.08-.26-.13-.29s-.16-.06-.37-.05c-1.21.03-2.5-.14-3.74-.57-.86-.3-1.68-.68-2.44-1.23-.71-.52-1.21-1.15-1.54-1.92-.17-.44-.25-.66-.42-1.1-.19-.67-.13-1.2.2-1.64.08-.1.15-.2.3-.3.47-.44,1.08-.71,1.71-.93,1.21-.36,2.48-.53,3.82-.64.97-.08,2.02-.15,3.05-.14.34-.02.55-.13.72-.37.05-.07.07-.1.12-.17,1-1.41,2.52-2.38,4.27-2.98,1.28-.44,2.64-.47,4.09-.15.54.11,1.01.32,1.47.64.34.23.51.51.57.89.04.28.11.58.12.84.01.26-.02.49-.13.67-.07.11-.12.18-.23.25-.27.23-.56.39-.94.49-1,.4-2.07.6-3.16.73-1.6.24-3.28.37-4.99.41-.31-.01-.56.07-.76.34-.03.04-.04.06-.07.1-.83,1.37-1.24,2.89-1.22,4.65-.02.03-.03.13.06.2.48-.03.85-.18,1.26-.31Zm-1.8-4.91c-1.56.08-3.15.17-4.61.51-.95.19-1.79.51-2.49,1.09-.14.1-.24.24-.34.37-.13.17-.25.34-.29.57-.04.23.02.44.22.63.27.26.53.49.84.72.12.09.19.14.31.23,1.84,1.03,3.76,1.36,5.65,1.29.16-.04.23-.05.25-.08.05-.07.03-.13.01-.3-.19-1.72,0-3.3.6-4.78.05-.07.07-.1.01-.2-.02-.01-.03-.02-.04-.03t-.11-.03Zm3.35-1.45s.11.02.18.02c1.28-.09,2.49-.17,3.7-.32.89-.1,1.8-.26,2.63-.57.38-.1.74-.27,1.05-.47.07,0,.09-.04.11-.08s.05-.07.03-.13c.02-.04-.02-.06-.1-.12-.05-.03-.08-.05-.13-.09-.26-.07-.5-.18-.71-.22-.65-.13-1.31-.17-1.95-.14-1.85.07-3.28.76-4.56,1.77-.09.04-.23.15-.28.22-.02.03-.03.04-.05.07.03.02.05.04.09.06Z"/>
      <path d="m139.16,428.84c-3,2.05-6.17,4-9.53,5.73-2.68,1.38-5.49,2.66-8.6,3.54-1.67.48-3.38.87-5.28.86-.96.01-1.95-.04-2.96-.31-.44-.14-.87-.29-1.27-.51-.15-.08-.3-.18-.42-.29-.37-.29-.87-.54-1.22-.83-.53-.45-.87-.99-1.07-1.54-.31-1.06-.22-2.07.12-2.92.2-.49.45-1.01.73-1.49.46-.81,1.03-1.56,1.63-2.28,2.23-2.67,4.87-5.04,7.63-7.25,1.6-1.28,3.18-2.59,4.74-3.86,1.69-1.38,3.49-2.71,5.21-4.03,2.14-1.64,4.44-3.13,6.67-4.65.33-.21.45-.34.62-.26.09.04.22.23.38.43.15.18.31.36.47.57.12.16.2.24.14.36-.02.04-.1.09-.18.15-.51.36-1.01.73-1.46,1.07-3.25,2.35-6.54,4.66-9.6,7.15-3.59,2.93-7.31,5.76-10.61,9.01-1.12,1.12-2.2,2.31-3.17,3.51-.37.46-.75.99-1.04,1.5-.27.48-.47.96-.65,1.48-.2.6-.31,1.24-.12,1.93.01.2.1.4.14.56.12.36.3.61.65.8.15.08.32.13.53.2,1.06.3,2.03.4,3.06.38,1.92-.02,3.68-.38,5.41-.86,3.54-.97,6.75-2.47,9.72-4.08,2.65-1.44,5.19-3.07,7.66-4.75,2.05-1.4,4.08-2.83,6.12-4.25,2.17-1.51,4.38-3.02,6.5-4.58,1.34-.96,2.61-1.92,3.96-2.85.79-.56,1.54-1.04,2.3-1.56.07-.06.13-.08.21-.15.12-.05.22-.05.31-.02.04.02.13.05.16.11.2.26.45.54.65.8.12.09.13.19.08.31-.02.04-.03.08-.1.14-.06.02-.07.06-.15.12-1.48,1.21-2.94,2.47-4.47,3.69-2.89,2.42-5.82,4.85-8.7,7.36-2.28,1.99-4.59,4-6.71,6.12-1.66,1.66-3.39,3.35-4.84,5.18-.81,1.02-1.53,2.05-2.08,3.25l-.28.62c-.23.5-.38,1.09-.41,1.69,0,.28.04.44.14.49.1.05.26.03.51-.05.21-.06.39-.19.61-.28.15-.07.41-.05.52.05.03.03.13.11.23.15.28.18.42.28.37.4-.03.08-.14.17-.29.24-.32.18-.63.32-1.02.38-.25.02-.54-.01-.79-.13-.08-.04-.12-.06-.2-.09-.28-.18-.54-.31-.77-.45-.46-.28-.74-.64-.86-1.06-.13-.48-.1-.99-.06-1.44.07-.83.32-1.59.66-2.32.2-.42.46-.86.71-1.26,1.58-2.35,3.66-4.29,5.71-6.25,1.42-1.36,2.89-2.7,4.42-4.02.03-.08.12-.13.2-.19-.04-.02-.06-.03-.09-.04-.24.17-.55.36-.86.55Z"/>
      <path d="m173.27,420.61c-.15,0-.24-.03-.27.1,0,.02,0,.02-.01.04.03.23.01.45-.05.66-.1.33-.29.63-.48.93-.57.9-1.26,1.72-2.01,2.52-1.87,2.02-3.86,3.94-5.84,5.9-3.13,3.06-6.32,6.12-9.4,9.23-1.8,1.8-3.69,3.57-5.39,5.43-1.26,1.38-2.53,2.78-3.64,4.32-.13.18-.22.42-.34.6-.02.06-.04.1-.06.16-.03.08-.05.12.06.16.05.02.15.06.27.06.96.1,1.88.16,2.78.23.62.05,1.19.08,1.76.1.17.02.29.01.39.05.21.07.31.26.4.51.11.31.2.57.29.83.04.06.02.1,0,.14-.03.08-.11.14-.19.21-.2.06-.33.11-.51.13-.12,0-.23,0-.34-.03-.05-.02-.12-.04-.14-.1-.03-.08-.13-.14-.18-.16-.1-.04-.15-.06-.27-.05-.34-.03-.7-.05-.96-.08-.47-.05-.86-.05-1.27.12-.57.29-1.2.23-1.82,0-.16-.06-.37-.14-.55-.26-.14-.09-.24-.14-.4-.2-.15-.06-.31-.12-.49-.1-.63-.06-1.27-.09-1.88-.19-.29-.02-.61-.11-.87-.21-.21-.08-.36-.15-.5-.25-.62-.39-.82-.93-.96-1.49.02-.04.05-.12.11-.14.07-.02.13-.04.19-.02.03.03.05.05.09.08.21.22.43.41.69.51.41.17.89.17,1.29.2.29.02.61.11.83,0,.07-.02.08-.06.1-.1.06-.16-.02-.35.02-.5.03-.14.06-.3.12-.46.18-.48.52-.89.81-1.33,1.36-1.85,2.89-3.58,4.58-5.22,3.27-3.27,6.61-6.58,9.91-9.77,2.36-2.28,4.72-4.56,7.09-6.84,1.33-1.27,2.6-2.57,3.86-3.92.44-.44.85-.99,1.21-1.5.04-.12.11-.19.13-.27,0-.02,0-.02.01-.04.03-.08-.02-.1-.06-.11-.04-.01-.05-.02-.09-.03-.1.01-.24-.03-.38-.03-.77-.06-1.53-.13-2.33-.25-.24-.03-.46-.1-.68-.18-.89-.29-1.56-.83-2.03-1.63-.04-.02-.07-.07-.07-.07-.06-.11-.14-.18-.11-.26.01-.04.06-.03.07-.07.07-.07.12-.05.2-.02.04.02.09.03.12.09.34.3.72.51,1.12.65.31.1.68.18,1.02.2,1.63.13,3.18.17,4.76.25.82.02,1.58.07,2.37.17.1-.01.19.01.28.04.31.09.5.26.67.51.19.28.42.56.61.89.1.16.17.27.13.39-.02.08-.15.17-.35.21-.3.07-.71.11-1.08.22-.06.03-.15,0-.19-.01-.09-.03-.13-.04-.21-.11-.13-.22-.36-.42-.28-.71-.56-.08-1.09-.1-1.62-.12Z"/>
      <path d="m192.91,429.33c-.49.52-1.06.97-1.63,1.38-2.31,1.8-4.75,3.47-7.2,5.13-3.09,2.09-6.22,4.26-9.27,6.41-2.73,1.92-5.62,3.81-8.47,5.64-.67.42-1.36.88-2.09,1.28-.25.1-.33.17-.48.12-.1-.03-.19-.1-.38-.21-.27-.22-.55-.4-.81-.61-.18-.15-.26-.22-.23-.34.01-.04.09-.11.16-.17.24-.14.36-.21.61-.35,5.12-2.96,9.89-6.22,14.55-9.52,2.91-2.07,5.81-4.05,8.73-6.07,1.63-1.12,3.29-2.26,4.81-3.52.24-.21.47-.43.7-.6.12-.11.17-.14.26-.12.09.02.18.08.25.18.19.26.42.52.61.78.08.1.1.2.08.32-.02.08-.13.19-.2.27Z"/>
      <path d="m214.13,448.88c-2.15,2.95-4.5,5.87-7.08,8.63-2.06,2.2-4.27,4.36-6.88,6.23-1.4,1.01-2.86,1.95-4.62,2.57-.88.33-1.82.61-2.84.69-.45,0-.9.01-1.33-.07-.16-.03-.33-.08-.48-.13-.43-.16-.97-.23-1.38-.39-.62-.25-1.11-.65-1.47-1.12-.61-.91-.84-1.91-.79-2.83.03-.54.11-1.12.22-1.67.18-.93.47-1.83.81-2.73,1.24-3.3,2.95-6.46,4.82-9.49,1.08-1.76,2.15-3.55,3.19-5.28,1.14-1.88,2.39-3.75,3.58-5.59,1.48-2.28,3.14-4.47,4.74-6.67.24-.31.31-.48.49-.45.09.01.27.15.48.29.2.12.4.24.61.39.16.11.26.17.24.3,0,.04-.06.12-.12.2-.36.52-.71,1.03-1.02,1.51-2.29,3.33-4.62,6.63-6.68,10.03-2.42,4-4.99,7.95-7.04,12.16-.69,1.44-1.32,2.94-1.85,4.42-.2.56-.39,1.2-.5,1.79-.1.55-.14,1.07-.14,1.64,0,.65.09,1.29.48,1.89.08.19.21.35.3.5.22.3.47.48.85.55.16.03.33.02.55.02,1.07-.06,2-.29,2.94-.65,1.77-.65,3.29-1.58,4.75-2.62,2.98-2.11,5.49-4.59,7.75-7.12,2.01-2.26,3.87-4.65,5.64-7.07,1.47-2.01,2.91-4.05,4.37-6.08,1.55-2.16,3.14-4.33,4.62-6.52.95-1.36,1.84-2.69,2.8-4.02.56-.79,1.11-1.5,1.65-2.25.05-.08.1-.12.15-.21.1-.08.19-.12.28-.12.05,0,.14,0,.18.05.27.19.59.37.86.56.14.05.18.14.17.27,0,.04,0,.09-.05.17-.05.04-.05.08-.1.17-1,1.65-1.97,3.33-3.02,5-1.94,3.27-3.91,6.56-5.81,9.91-1.5,2.65-3.02,5.34-4.33,8.07-1.03,2.14-2.11,4.32-2.89,6.56-.43,1.25-.79,2.48-.92,3.81-.03.27-.04.41-.07.69-.06.56-.01,1.17.15,1.75.08.27.18.41.29.42.11.01.25-.06.46-.21.18-.13.3-.31.48-.47.12-.12.37-.18.5-.12.04.02.16.06.26.07.32.08.48.13.46.26,0,.09-.07.21-.19.33-.24.28-.48.52-.83.7-.23.11-.51.16-.78.13-.09,0-.13-.01-.22-.02-.32-.08-.6-.12-.86-.18-.51-.12-.89-.37-1.13-.74-.27-.42-.4-.92-.51-1.36-.19-.83-.2-1.63-.11-2.45.05-.47.16-.98.27-1.45.74-2.78,2.07-5.32,3.37-7.87.9-1.77,1.84-3.54,2.86-5.31,0-.09.07-.17.12-.25-.04,0-.06,0-.1,0-.17.24-.4.52-.63.81Z"/>
      <path d="m226.07,453.85c1.24-1.28,2.33-2.62,3.55-3.88,1.35-1.4,2.63-2.91,4.18-4.18.1-.09.2-.17.25-.26.15-.13.3-.17.45-.17.1,0,.15,0,.25.05.3.09.59.14.89.23.15,0,.3.09.3.22,0,.17-.1.26-.3.3-.24.04-.4.17-.6.3-1.05.77-1.91,1.66-2.78,2.55-2.04,1.95-3.79,4.09-5.73,6.12-.11.13-.22.25-.22.42,0,.09.04.22.14.35.43.93,1.07,1.74,1.94,2.43.1.05.15.09.26.14.46.28.93.47,1.45.49.31.01.63-.07,1-.19.9-.32,1.68-.74,2.42-1.2,1.57-1.1,2.97-2.31,4.25-3.55,1.06-1.04,2.18-2.09,3.12-3.18.1-.13.2-.22.4-.22.1,0,.2-.05.3-.05.1,0,.15.04.2.08,0,.04.05.04.05.09,0,.13-.15.22-.25.31-.99,1.27-2.14,2.52-3.32,3.71-.9.91-1.9,1.86-2.94,2.67-.73.55-1.47,1.09-2.31,1.48-.82.38-1.79.56-2.79.53-.34-.01-.5-.02-.84-.03-.26,0-.52-.02-.84-.07-.83-.16-1.56-.51-2.16-1.01-.45-.37-.85-.78-1.2-1.23-.1-.14-.15-.18-.2-.18-.05,0-.11.04-.22.16-.55.58-1.07,1.15-1.6,1.68-.56.55-1.11,1.1-1.77,1.58-.27.16-.56.35-.87.42-.26.06-.48.09-.75.08-.42-.03-.84-.15-1.25-.31-.1-.05-.15-.1-.15-.19s.07-.17.12-.21c.22-.16.49-.26.81-.24.04,0,.06,0,.11,0,.05,0,.15.05.21.06.26.02.53-.09.7-.25.33-.28.66-.52.94-.8.95-.93,1.89-1.91,2.87-2.9.11-.08.17-.21.17-.29,0-.09-.04-.18-.09-.26-.88-1.96-1.33-4.02-1.71-6.09-.12-.53-.24-1.06-.31-1.62-.04-.13-.08-.27-.08-.4.02-.26.07-.39.27-.37.05,0,.15.05.2.06.39.11.77.2,1.13.33.24.08.29.28.33.45.2.88.35,1.74.53,2.54.26,1.16.55,2.33.96,3.48.05.09.09.18.19.31.16-.08.21-.21.32-.29Z"/>
      <path d="m264.18,446.2c.39-1.06.79-2.14,1.22-3.17.47-1.15.99-2.36,1.57-3.54.26-.6.57-1.22.88-1.83.91-1.88,1.95-3.75,3.06-5.55.66-1.03,1.31-2.01,2.06-2.93,1.26-1.58,2.69-3.07,4.45-4.15.75-.5,1.57-.83,2.43-1,.27-.05.54-.11.82-.12.51-.02,1.04.01,1.54.17.26.12.61.23.91.3,1.05.27,1.8.9,2.42,1.67.81,1.02,1.35,2.18,1.74,3.39.15.46.31.92.41,1.35.35,1.54.42,3.06.41,4.62,0,3.18-.58,6.34-1.61,9.35-.83,2.44-2.05,4.88-3.45,7.23-.92,1.55-2.01,3.07-3.16,4.51-1.23,1.53-2.64,3.12-4.15,4.5-1.21,1.11-2.49,2.16-3.83,3.09-1.88,1.34-3.93,2.47-6.18,3.36-1.31.53-2.64.92-4.11,1.05-.13.01-.2.02-.33.03-1.58.09-3.09-.17-4.48-.66-1.16-.41-1.89-1.32-1.96-2.32,0-.13-.02-.3.02-.44.04-.96.41-1.86.98-2.68.72-1.04,1.55-1.98,2.58-2.85.39-.34.6-.72.58-1.18-.03-.63.14-1.32.24-1.94.47-2.79,1.15-5.58,1.91-8.31.89-3.22,1.77-6.49,2.74-9.72.77-2.54,1.51-5.06,2.41-7.51.25-.6.5-1.17.75-1.77.03-.09.11-.24.19-.33.15-.29.22-.43.36-.45.14-.02.29.03.53.1.22.07.49.15.74.25.15.07.25.1.27.23,0,.04-.04.14-.06.23-.03.12-.1.28-.18.38-.17.42-.3.84-.34,1.24-.03.09-.06.23-.05.32.01.09.07.12.08.21.05.04.06.08.07.12,0,.04-.03.09-.08.1-.04-.01-.06-.02-.1-.03-.05,0-.1-.03-.15-.02-.14.02-.17.16-.24.3-.63,1.94-1.22,3.9-1.76,5.78-.84,2.9-1.67,5.83-2.49,8.77-.18.59-.36,1.22-.5,1.81-.03.14-.07.27-.11.36,0,.04.05.04.05.04.32-.78.61-1.57.9-2.33Zm-1.66,10.48c.74-.42,1.49-.72,2.3-.98.3-.12.61-.15.87-.18.46-.05.83-.05,1.26.03.16.03.32.05.34.18.02.13-.07.27-.17.33-.24.2-.49.28-.73.44-1.58.84-3.18,1.69-4.6,2.75-1.21.91-2.36,1.87-3.33,3-.49.56-.91,1.19-1.19,1.79-.25.53-.45,1.12-.4,1.73.02.22.09.43.16.64.29.9,1.49,1.6,2.63,1.51.81-.06,1.57-.13,2.32-.33,1.49-.39,2.91-.93,4.25-1.6,1.65-.83,3.2-1.75,4.6-2.77,1.52-1.11,2.91-2.39,4.21-3.7,1.18-1.19,2.32-2.47,3.3-3.73,1.18-1.52,2.21-3.12,3.12-4.74,1.31-2.28,2.39-4.65,3.19-7.06.9-2.72,1.48-5.56,1.58-8.33.07-1.82-.06-3.62-.46-5.42-.06-.27-.09-.41-.15-.68-.25-.89-.59-1.83-1.01-2.61-.37-.67-.85-1.27-1.39-1.76-.39-.36-.84-.47-1.32-.44-.22.02-.42.04-.64.09-.59.12-1.12.32-1.67.6-1.29.65-2.34,1.56-3.35,2.54s-1.87,2.04-2.69,3.17c-.99,1.36-1.94,2.83-2.79,4.28-.96,1.64-1.82,3.31-2.61,4.99-1.07,2.28-2.05,4.72-2.94,7.09-1.1,2.93-2.07,5.93-3.07,8.92-.04.13-.08.27-.06.44.21-.02.35-.12.45-.17Z"/>
      <path d="m293.89,450.06c.22.23.48.38.83.35.26-.02.52-.08.77-.14.41-.1.85-.25,1.24-.43,1.15-.55,2.2-1.31,3.17-2.1,2.11-1.77,4.03-3.71,5.68-5.88.23-.3.4-.62.63-.92.07-.11.21-.2.3-.23.2-.06.47-.05.61.09,0,.02,0,.03.01.04.01.04.04.13,0,.18-.09.14-.13.2-.22.34-1.35,2.24-3.09,4.24-5.06,6.08-.89.87-1.82,1.66-2.87,2.38-.6.38-1.27.72-1.96.98-.2.05-.35.13-.55.18-.25.06-.52.08-.79.1-1.07.03-2.04-.22-2.84-.65-.65-.35-1.06-.89-1.19-1.48-.04-.17-.02-.31-.05-.44-.28-2.36.32-4.56,1.73-6.65.57-.86,1.26-1.61,2.27-2.09.13-.08.23-.1.38-.14.29-.07.61-.07.94.03.39.12.85.23,1.29.35.33.09.54.27.61.52.02.08-.02.14,0,.23-.03,1.46-.57,2.78-1.7,3.93-.39.32-.81.56-1.2.66-.45.11-.93.09-1.43-.02-.27-.03-.44-.08-.54-.05-.15.04-.17.18-.3.52-.16.85-.28,1.69-.29,2.54,0,.27.03.57.08.79.06.29.19.68.44.94Zm2.14-6.19c.59-.78.9-1.63.98-2.51.02-.14.08-.29.06-.38-.01-.04-.07-.07-.07-.07-.06-.03-.11-.02-.11-.02-.15.04-.26.2-.35.27-1.13.87-1.79,1.98-2.33,3.19-.07.15-.1.25-.08.33s.19.14.45.12c.06-.01.09-.02.15-.04.58-.18.98-.51,1.3-.9Z"/>
      <path d="m305.84,457.48c-.79-.02-1.57.01-2.33-.11-1.94-.36-3.4-1.27-4.12-2.81-.13-.28-.26-.57-.32-.82-.13-.51-.15-1-.11-1.51.1-1.52.72-2.89,1.78-4.17.7-.82,1.54-1.45,2.51-2.04,1.24-.75,2.51-1.38,3.82-2.04.43-.17.58-.22.53-.39-.03-.08-.1-.15-.21-.35-.68-.99-1.31-2.04-1.75-3.15-.06-.21-.17-.41-.23-.58-.24-.8-.3-1.66-.21-2.46.08-.65.4-1.27.86-1.82.22-.3.58-.5.96-.61.38-.12.81-.16,1.19-.05.34.1.77.26,1.11.34.35.09.61.27.72.6.02.05.02.08.04.13.05.31-.02.61-.07.94-.02.1-.06.16-.1.17-.05.02-.11-.01-.16,0-.28-.05-.48-.17-.56-.42-.09-.29-.14-.43-.23-.71-.13-.24-.25-.29-.49-.22-.06.02-.09.03-.14.04-.44.27-.69.63-.88,1.05-.28.64-.29,1.37-.23,2,.04.39.12.74.24,1.12.23.76.59,1.54.99,2.18.16.26.33.54.52.81.1.15.18.22.32.18.05-.01.15-.04.23-.12.42-.22.87-.5,1.27-.76,1.19-.83,2.4-1.65,3.49-2.56.76-.62,1.38-1.35,1.73-2.21.05-.16.07-.26.17-.29.1-.03.16,0,.33.03.17.03.25.1.28.18.01.04,0,.14-.02.24-.26.79-.72,1.51-1.39,2.1-1.57,1.46-3.3,2.8-5.19,3.89-.04.06-.09.07-.13.09-.23.12-.36.25-.33.33.03.08.1.15.18.22.44.56.91,1.15,1.35,1.7.64.8,1.37,1.56,1.92,2.4.32.5.59.97.75,1.47.34,1.05.29,2.17-.23,3.34-.46,1.05-1.21,1.93-2.22,2.69-.6.45-1.15.89-1.86,1.18-.4.16-.77.26-1.19.38-.84.23-1.71.37-2.61.35Zm1.97-1c1.65-.73,2.89-1.87,3.61-3.19.66-1.21.76-2.44.42-3.53-.12-.38-.3-.78-.52-1.13-.83-1.41-1.96-2.58-2.94-3.85-.11-.2-.18-.22-.33-.18-.1.03-.15.04-.25.07-.47.23-.99.48-1.46.74-1.12.6-2.25,1.21-3.2,2.04-1.32,1.15-2.24,2.5-2.52,4.12-.15.67-.14,1.35.04,2.03.08.3.22.62.35.91.45.88,1.24,1.49,2.18,1.93,1.02.48,2.16.75,3.42.41.1-.03.16-.04.26-.07.31-.09.63-.17.93-.3Z"/>
      <path d="m316.34,439.62c-.12-1.48-.24-3.04-.03-4.6.06-.44.1-.92.16-1.36.05-.16.07-.26.13-.37.02-.1.1-.17.24-.22.05-.02.09-.03.16,0,.5.06,1,.11,1.47.22.11,0,.24.06.27.14.01.04-.02.1-.04.2-.73,3.17-.42,6.23.04,9.29,0,.14.05.31.1.43.09.25.21.46.35.67.1.15.19.22.34.16.05-.02.1-.03.18-.11.4-.28.73-.63,1-.96.82-.99,1.5-2.03,2.12-3.06,1.16-1.83,2.26-3.71,3.27-5.63.06-.12.16-.3.3-.36.05-.02.11,0,.16-.02.32-.03.5,0,.53.08.03.08-.01.24-.11.42-1.09,2.28-2.28,4.53-3.55,6.69-.37.65-.76,1.27-1.17,1.83-.37.51-.77.98-1.31,1.35-.17.15-.4.28-.6.35-.2.07-.41.1-.69.1-.28,0-.56,0-.89.02-.46-.03-.84-.21-1.12-.5-.36-.37-.64-.87-.8-1.36-.34-1.07-.42-2.24-.51-3.41Zm.64-9.42c-.02-1.07.16-2.17.46-3.22.06-.26.16-.48.26-.71.09-.19.18-.35.28-.38.14-.05.26-.02.48.01.19.03.47.06.68.12.18.05.31.12.34.2.03.08.02.18-.04.3-.47.98-.58,1.96-.68,2.98-.05.16-.06.26-.03.34s.15.13.4.23c.11,0,.14.09.16.13.02.04.05.12.01.18-.13.38-.27.71-.48,1.02-.06.12-.14.19-.24.23-.09.03-.16,0-.27,0-.25-.1-.48-.15-.76-.19-.17-.03-.33-.16-.42-.41-.02-.05-.03-.07-.04-.12-.06-.17-.1-.43-.1-.71Z"/>
      <path d="m338.76,433.28c1-1.61,2.03-3.21,3.09-4.74.59-.82,1.23-1.62,1.9-2.39.07-.09.17-.13.26-.18.18-.09.39-.14.59-.09.07.02.09.06.09.06.02.04,0,.1-.03.16-.15.27-.33.51-.5.74-.67.87-1.33,1.82-1.91,2.74-.69,1.09-1.42,2.26-2.07,3.35-.76,1.28-1.56,2.55-2.33,3.8-.16.17-.18.37-.16.55-.06,1.96-.19,3.9-.5,5.84-.39,2.42-.92,4.93-1.85,7.35-.52,1.35-1.09,2.62-1.92,3.88-.48.75-1.06,1.44-1.91,2.04-.14.1-.3.16-.46.22-.47.18-.96.22-1.37.18-.55-.06-.81-.41-.95-.78-.04-.12-.06-.17-.11-.29-.17-.78-.17-1.58-.02-2.43.24-1.55.78-3.06,1.42-4.58.94-2.25,2.11-4.41,3.3-6.57.7-1.24,1.46-2.46,2.16-3.67.17-.27.25-.49.24-.78.08-2.49-.05-4.99-.2-7.48-.04-.47-.08-.93-.23-1.4-.14.31-.31.57-.45.88-.54,1.2-1.17,2.46-1.9,3.66-.55.91-1.13,1.86-1.97,2.69-.29.26-.59.48-.88.6-.34.14-.71.19-1.13.12-.19-.07-.42-.07-.65-.08-.94-.1-1.5-.55-1.76-1.2-.07-.16-.13-.33-.15-.51-.18-1.02-.1-2.06.21-3.07.37-1.24.94-2.42,1.82-3.46.44-.52.98-.93,1.55-1.27.12-.1.31-.18.45-.24.51-.22,1-.24,1.5-.21.39.02.74.06,1.16.12.41.06.8.18,1.12.52.18-.22.22-.39.3-.57.1-.28.15-.41.34-.49.14-.06.25-.06.47-.07.33,0,.68.03,1.04.07.22,0,.37.07.44.24.09.2.18.4.23.63.42,1.9.56,3.83.64,5.78.03.57.03,1.1.06,1.67q-.03.06-.01.1s.02.04.08.06c.35-.49.64-1.01.99-1.51Zm-3.43,7.61c-.56,1-1.1,1.94-1.65,2.88-1.27,2.28-2.41,4.57-3.32,6.94-.4,1.1-.69,2.19-.8,3.31-.06.63-.05,1.29.17,1.87.06.17.21.31.33.4.1.08.22.11.33.07.06-.02.09-.03.16-.06.11-.1.16-.14.27-.24.62-.56,1.04-1.19,1.44-1.86.83-1.54,1.39-3.14,1.87-4.75.72-2.47,1.15-4.99,1.38-7.48.06-.41.1-.86.08-1.33-.18.12-.21.18-.24.25Zm-2.75-13.1c-.2-.19-.3-.3-.53-.2-.05.02-.12.1-.21.14-.43.28-.84.6-1.23,1-.59.68-1.06,1.4-1.39,2.21-.63,1.26-.91,2.62-.93,3.95.05.26.1.53.2.78.04.1.06.15.1.25.15.23.23.29.47.19.06-.02.09-.03.14-.06.1-.04.19-.08.27-.16.59-.33,1.01-.84,1.4-1.38.99-1.41,1.69-2.91,2.32-4.43.06-.12.15-.27.11-.39-.13-.35-.13-.81-.27-1.13-.02-.05-.03-.07-.05-.12-.11-.24-.22-.49-.39-.65Z"/>
      <path d="m345.84,422.74c.48-1.44,1.12-2.76,2.13-4,.25-.28.53-.53.8-.67.27-.14.56-.25.91-.24.16-.03.31-.07.51-.12.53-.09.97.15,1.25.48.19.22.39.5.54.77.15.27.3.55.4.84.63,1.58,1.02,3.29,1.43,4.93.17.76.36,1.57.63,2.18.12.26.34.48.54.67.13.12.22.18.31.13.09-.05.12-.11.19-.2.46-.5.74-1.1.96-1.68.69-1.94,1.06-3.88,1.53-5.79.17-.66.26-1.33.27-1.95-.02-.14-.04-.28.14-.39.02-.01.03-.02.04-.03.25-.09.36-.11.45.05.02.04.07.11.07.22.07.53,0,1.13-.1,1.7-.31,1.87-.65,3.74-1.05,5.64-.16.7-.39,1.38-.76,2.04-.18.35-.42.58-.74.76-.14.08-.3.15-.45.19-.29.09-.63.19-.95.26-.79.12-1.39-.12-1.83-.59-.15-.17-.3-.34-.41-.54-.19-.35-.28-.76-.4-1.09-.42-1.24-.62-2.54-.94-3.77-.28-1.09-.58-2.23-1.07-3.2-.1-.19-.24-.39-.34-.52-.09-.12-.13-.23-.22-.19-.05.02-.11.11-.18.2-.51.67-1.02,1.35-1.39,2.09-1.07,2.26-1.77,4.55-1.94,6.9-.05.72-.11,1.44-.11,2.13-.02.31-.03.41-.17.48-.05.02-.21.05-.37.08-.14,0-.21.01-.34.02-.55.07-.7,0-.86-.32-.05-.11-.08-.17-.14-.28-.28-.94-.49-1.98-.64-2.99-.26-1.73-.35-3.53-.29-5.34,0-.45-.03-.63.15-.72.14-.07.36-.08.69-.1.22-.01.51-.03.73-.02.2,0,.33-.02.37.06s.01.14.03.28c.04.88.05,1.32.08,2.19,0,.24.02.49,0,.69.02.04.07.02.07.02.14-.42.32-.85.45-1.27Z"/>
      <path d="m361.51,423.5c.29.16.57.22.92.09.25-.1.49-.23.72-.36.37-.22.76-.5,1.09-.79.97-.88,1.78-1.94,2.5-3.01,1.56-2.36,2.89-4.84,3.88-7.46.14-.36.22-.73.36-1.09.04-.13.15-.26.23-.31.18-.12.44-.19.63-.1.01.02.02.02.03.04.02.04.07.11.05.18-.05.16-.07.24-.11.4-.69,2.6-1.81,5.07-3.22,7.47-.62,1.12-1.31,2.17-2.13,3.19-.48.55-1.04,1.09-1.64,1.55-.19.11-.3.23-.49.34-.23.14-.49.23-.74.33-1.04.35-2.07.4-2.97.22-.74-.14-1.29-.54-1.6-1.09-.09-.15-.11-.3-.17-.41-.96-2.22-1.01-4.53-.23-7,.31-1.01.77-1.95,1.62-2.72.11-.12.2-.17.33-.25.26-.16.58-.25.93-.25.42,0,.9-.03,1.36-.05.35-.02.61.1.75.32.05.08.03.14.07.22.4,1.43.25,2.88-.53,4.34-.29.43-.63.79-.99,1.01-.41.24-.88.37-1.4.41-.27.06-.45.06-.54.11-.14.08-.11.22-.14.6.09.88.21,1.73.45,2.56.09.26.2.55.31.75.14.26.39.61.7.78Zm.3-6.67c.35-.94.41-1.85.24-2.74-.03-.14,0-.31-.05-.39-.02-.04-.09-.05-.09-.05-.07-.01-.11.02-.11.02-.13.08-.2.28-.26.37-.85,1.19-1.18,2.47-1.36,3.81-.02.17-.02.27.02.35s.23.07.47-.02c.05-.03.08-.05.14-.08.52-.36.81-.79,1.01-1.27Z"/>
      <path d="m373.37,410.29c-.21-2.01-.11-4.02.39-6.11.08-.44.25-.83.51-1.18.1-.13.23-.22.36-.31.17-.12.3-.21.52-.26.73-.14,1.48-.34,2.2-.15.46.11.81-.04,1.11-.25.17-.12.34-.25.48-.41.51-.54.83-1.17.85-1.85-.02-.21.03-.3.12-.37.04-.03.15-.06.26-.09.36-.04.54-.07.62.04.08.11.12.25.1.48,0,.95-.43,1.89-1.32,2.54-.05.04-.08.06-.13.09-.2.09-.37.21-.55.23-.61.06-1.21.21-1.82.27-.32,0-.54,0-.8-.03-.22-.03-.3-.06-.38,0-.09.06-.14.16-.2.25-.36.48-.5,1.01-.64,1.54-.35,1.77-.4,3.55-.37,5.3.03,1.54.27,3.05.45,4.59,0,.21.02.42-.02.65-.02.17-.04.24-.13.3-.09.06-.15.08-.25.11-.23.07-.5.12-.75.23-.39.09-.65,0-.84-.3-.32-.48-.64-.97-.82-1.54-.89-2.13-1.63-4.31-2.11-6.62-.2-.77-.33-1.61-.34-2.46,0-.27.03-.51.08-.7.04-.13.12-.19.25-.28.04-.03.13-.09.24-.11.36-.03.73-.12,1.09-.15.18-.01.31,0,.39.11.05.07.06.18.02.31.02.21,0,.37-.05.57-.15.43-.09.87-.02,1.26.27,1.87.85,3.58,1.42,5.29l.05.07s.02.04.09.04c0-.38-.04-.72-.06-1.14Z"/>
    </g>
  </g>
</svg>